<svg width="324" height="204" xmlns="http://www.w3.org/2000/svg" xmlns:xlink="http://www.w3.org/1999/xlink"><svg width="176" height="49" viewBox="-1 -1 176 49" y="53.15" xmlns="http://www.w3.org/2000/svg"><rect data-name="Rounded Rectangle 1" x="1.5" y="1.5" width="171" height="44" rx="3" ry="3" fill="none" stroke="#fff" stroke-linecap="round" stroke-width="3"/></svg><svg height="19.97" width="127.44" viewBox="-1 -1 127.44 19.97" y="183.58" xmlns="http://www.w3.org/2000/svg"><path d="M.16 17.368s4.661 0 9.321.1c0 0-.024-1.3.025-3.447 0 0-1.864.025-5.4-.073-.147-10.094-.1-13.345-.1-13.345-2.747.049-4 0-4 0C.16 9.693.16 17.368.16 17.368zm10.589-.024c5.2.048 9.69.22 9.69.22-.025-2.2.024-3.373.024-3.373-3.63-.049-5.765-.147-5.765-.147-.049-1.149-.073-2.249-.1-3.251 2.993-.049 4.857 0 4.857 0-.049-2.053-.024-3.2-.024-3.2-2.7.074-4.244.049-4.882.049-.049-2.346-.024-3.764-.024-3.764 3.36-.073 5.838-.1 5.838-.1-.049-2.126-.049-3.422-.049-3.422-6.3.074-9.763.123-9.763.123.173 9.874.198 16.865.198 16.865zm10.639-.313a87.296 87.296 0 014.023.049c.123-.88.245-1.736.392-2.591 1.816 0 3.165.024 4.048.049a203.9 203.9 0 00.589 3.348c2.134-.049 4.219-.024 4.219-.024C32.623 8.672 30.881.288 30.881.288s-2.747-.024-5.912.1c-2.088 9.943-3.581 16.643-3.581 16.643zm6.427-13.908c.613 3.349 1.1 6.135 1.5 8.36h-3.027c.665-3.941 1.279-7.045 1.524-8.365zm15.944 14.861c2.478-.269 4.146-.44 4.146-.44-1.6-3.324-2.625-5.5-3.165-6.7a4.969 4.969 0 002.846-4.864c0-3.788-2.576-5.866-7.286-5.866a22.816 22.816 0 00-4.513.513c.073 10.29-.025 16.548-.025 16.548 1.987-.049 4-.025 4-.025l-.1-5.353a14.078 14.078 0 001.471-.073c1.666 3.835 2.623 6.255 2.623 6.255zm-4.1-9.019s-.05-2.249-.074-5.548a6.873 6.873 0 011.177-.1 2.517 2.517 0 012.821 2.835c.005 2.124-1.395 2.955-3.923 2.808zm9.551 8.066c2.085 0 3.827.049 3.827.049a362.42 362.42 0 01-.3-9.484c2.723 6.233 4.49 10.29 4.49 10.29 2.306-.122 3.851-.269 3.851-.269C60.833 6.741 60.759.068 60.759.068c-2.085 0-3.778-.049-3.778-.049.3 5.084.417 9.142.466 11.341C54.823 5.47 53.007.85 53.007.85c-2.134.074-3.876.171-3.876.171.157 9.919.08 16.01.08 16.01zm19.721.024c1.889.049 4.1.1 4.1.1a585.36 585.36 0 01-.025-12.93 600.694 600.694 0 012.159 10.266c2.061.073 4.048.049 4.048.049.736-3.984 1.668-8.311 2.232-10.828.245 8.115.147 14.2.147 14.2 2.012-.049 4.1-.122 4.1-.122-.564-10.511-.736-17.6-.736-17.6l-5.642-.195a284.28 284.28 0 01-2.134 10.779A216.4 216.4 0 0175.217.826c-2.919.1-5.666.073-5.666.073-.251 9.356-.619 16.151-.619 16.151zm24.825.831c4.047 0 6.6-2.517 6.623-8.872.024-5.426-2.012-8.921-6.623-8.921-4.588 0-6.7 3.69-6.648 8.945.025 5.739 2.28 8.843 6.649 8.843zm0-3.128c-1.546 0-2.355-1.613-2.355-5.817 0-3.936.809-5.671 2.33-5.671s2.33 1.638 2.33 5.671c.001 4.467-.906 5.812-2.304 5.812zm16.385 3.226c2.478-.269 4.146-.44 4.146-.44-1.6-3.324-2.625-5.5-3.165-6.7a4.969 4.969 0 002.846-4.864c0-3.788-2.576-5.866-7.286-5.866a22.816 22.816 0 00-4.513.513c.073 10.29-.025 16.548-.025 16.548 1.987-.049 4-.025 4-.025l-.1-5.353a14.083 14.083 0 001.472-.073 211.051 211.051 0 012.626 6.255zm-4.1-9.019s-.049-2.249-.073-5.548a6.873 6.873 0 011.177-.1 2.517 2.517 0 012.821 2.835c.004 2.124-1.394 2.955-3.921 2.808zm9.675 8.384c5.2.048 9.689.22 9.689.22-.024-2.2.025-3.373.025-3.373-3.631-.049-5.765-.147-5.765-.147-.049-1.149-.074-2.249-.1-3.251 2.993-.049 4.857 0 4.857 0-.049-2.053-.024-3.2-.024-3.2-2.7.074-4.244.049-4.882.049-.049-2.346-.025-3.764-.025-3.764 3.361-.073 5.839-.1 5.839-.1-.049-2.126-.049-3.422-.049-3.422-6.305.074-9.764.123-9.764.123.178 9.869.203 16.86.203 16.86z" fill="#fff" fill-rule="evenodd"/></svg><svg width="95.44" height="33.31" viewBox="-1 -1 95.44 33.31" x="228.41" xmlns="http://www.w3.org/2000/svg"><path data-name="100%" d="M6.181 30.355s2.745.084 7.1-.042c0 0-.295-14.028-.295-28.811 0 0-1.521-.168-4.225-.5 0 0-3.337 1.89-8.744 4.619 0 0 .8 2.184 1.986 6.048 0 0 1.6-.966 4.139-2.226.039 2.558.123 9.404.039 20.912zm22.219.966c7.392 0 11.363-5.628 11.363-15.75 0-9.87-3.971-14.867-11.4-14.867-7.013 0-11.321 5.039-11.321 15.077-.005 10.08 4.388 15.54 11.358 15.54zm.042-5.712c-2.7 0-4.055-3.024-4.055-9.954 0-6.51 1.309-9.366 4.013-9.366 2.534 0 3.928 3.108 3.928 9.2 0 7.726-1.52 10.12-3.886 10.12zm24.542 5.712c7.393 0 11.364-5.628 11.364-15.75 0-9.87-3.971-14.867-11.406-14.867-7.012 0-11.321 5.039-11.321 15.077 0 10.08 4.394 15.54 11.367 15.54zm.043-5.712c-2.7 0-4.055-3.024-4.055-9.954 0-6.51 1.309-9.366 4.012-9.366 2.535 0 3.929 3.108 3.929 9.2 0 7.726-1.525 10.12-3.886 10.12zm19.346-9.786c3.887 0 6.844-2.016 6.844-7.812 0-5.123-2.281-8.021-6.759-8.021-4.393 0-6.843 3.024-6.843 7.475 0 4.956 1.901 8.358 6.758 8.358zm.043-3.192c-1.31 0-1.986-1.386-1.986-4.788 0-2.94.634-4.535 1.986-4.535s1.985 1.343 1.985 4.577c0 3.654-.713 4.746-1.985 4.746zm-.465 18.228s3.971-6.594 17.826-29.651c0 0-1.267-.042-3.21-.294 0 0-6.337 11-17.7 29.567a27.994 27.994 0 013.084.378zm14.573.294c3.971 0 6.928-2.352 6.928-7.98 0-4.7-2.2-7.938-6.843-7.938-4.478 0-6.843 3.36-6.843 7.77 0 4.87 2.112 8.148 6.758 8.148zm.085-3.234c-1.352 0-1.985-1.344-1.985-4.872 0-2.982.675-4.452 1.943-4.452 1.394 0 1.985 1.386 1.985 4.7 0 3.406-.676 4.624-1.943 4.624z" fill="#fff" fill-rule="evenodd"/></svg><svg height="33.31" width="228.41" viewBox="-1 -1 228.41 33.31" xmlns="http://www.w3.org/2000/svg"><path d="M18.157 31.321s3.295 0 9.885-.336c0 0 .676-8.568 3-30.365 0 0-2.112 0-6.885-.168 0 0-.169 5.291-1.563 24.653-.634-3.906-1.816-11.172-3.464-21.923 0 0-2.028-.084-7.35-.084 0 0-.591 3.9-3.421 20.537-.338-4.368-.845-12.1-1.394-22.049 0 0-3.337.084-6.97.126.38 4.283 1.478 14.153 2.746 27.467 0 0 2.408.042 9.5.378 0 0 .929-6.342 3.168-20.2.552 4.118 1.439 11.338 2.748 21.964zm14.7-1.806c4.182-.084 6.843-.042 6.843-.042s-.084-5.628 0-10.668c.042-2.52 1.056-4.41 2.957-4.41 1.521 0 2.028 1.092 2.112 3.15.127 6.426-.042 13.356-.042 13.356 4.1 0 6.716.084 6.716.084s.169-8.232-.042-15.33c-.169-4.368-2.154-7.1-5.956-7.1a6.661 6.661 0 00-6 3.36c-.042-5.67.085-10.205.085-10.205-4.393.042-6.674.042-6.674.042.175 15.583.002 27.763.002 27.763zm30.837 1.26c5.956 0 10.265-3.36 10.265-11.214.042-6.678-3.633-11-10.223-11-6.294 0-10.18 4.2-10.18 10.794.001 7.262 3.507 11.42 10.139 11.42zm.085-4.536c-2.2 0-3.169-1.974-3.169-6.888 0-4.158 1.183-6.258 3.211-6.258 2.154 0 3.126 2.31 3.126 6.426.001 4.83-1.224 6.72-3.167 6.72zm19.474 3.654s-.127-6.048.084-28.433c0 0-2.154 0-6.8-.084 0 0 .127 8.189-.042 28.433 0 0 2.536 0 6.759.084zm12.883 1.008c4.942 0 8.575-2.6 9.8-7.644-4.393-.126-7.012-.21-7.012-.21-.338 2.31-1.352 3.4-2.873 3.4-1.943 0-3-1.554-3.252-4.914 8.49-.168 13.1-.21 13.1-.21.338-7.518-2.239-12.726-10.054-12.768-6.463 0-10.053 4.536-10.053 11-.004 6.558 2.699 11.346 10.345 11.346zm-.169-18.018c1.9 0 2.915 1.848 2.957 5.124-2.492.126-4.478.168-6.125.21.212-3.528 1.226-5.334 3.169-5.334zm32.4 18.228c7.012 0 11.532-4.158 11.109-16.17-6.758.042-12.081-.042-12.081-.042.085 3.4.043 5.208.043 5.208l5.111-.126c-.254 3.948-1.563 5.712-3.76 5.712-3.168 0-4.689-2.856-4.689-10.122 0-6.426 1.352-9.7 4.1-9.7 2.154 0 3.337 2.016 3.59 6.174 2.746-.126 7.055-.21 7.055-.21C138.591 4.821 134.916.37 128.327.37c-7.562 0-11.448 5.585-11.448 15.2-.001 11.047 4.519 15.541 11.489 15.541zm13.264-.84c4.562-.042 6.843-.042 6.843-.042s-.169-4.7-.084-7.854c.126-5.04 1.689-6.972 6.42-7.308.085-4.158.212-6.384.212-6.384a8 8 0 00-7.942 4.494c0-2.1.085-3.738.085-3.738-3.844.084-5.576.042-5.576.042.127 10.164.042 20.794.042 20.794zm21.374.588c2.7 0 5.323-.966 6.59-3.318-.042 2.016-.169 3.318-.169 3.318 3.464-.042 5.491-.042 5.491-.042s.127-6.384-.042-13.356c-.127-5.712-2.788-8.9-9.124-8.9-5.492 0-8.829 3.192-9 7.854 3.844.126 6.294.168 6.294.168.127-2.142.93-3.444 2.577-3.444 1.563 0 2.281 1.134 2.408 3.486.042.42.042.966.042.966-8.279-.294-12.123 2.562-12.123 7.266.003 3.692 2.833 6.002 7.057 6.002zm5.365-9.24c0 3.822-1.563 4.914-3.253 4.914a2.163 2.163 0 01-2.408-2.352c0-1.932 1.479-3.486 5.661-3.36v.8zm9.547 8.568c3.886-.084 6.759-.042 6.759-.042-.169-11.424-.127-21-.127-21-4.267.084-6.759.042-6.759.042.17 15.414.128 21 .128 21zm3.337-23.016c2.83 0 4.1-1.554 4.1-3.653 0-2.058-1.309-3.528-4.1-3.528s-4.223 1.344-4.223 3.528c0 2.393 1.394 3.657 4.224 3.657zm18.206 23.856s4.689-.042 6.8-.042c0 0 0-12.222-.126-15.246-.127-4.494-2.2-7.1-6.21-7.14a7.4 7.4 0 00-6.928 4.368c-.042-1.68.043-3.36.043-3.36-2.577.126-5.365.042-5.365.042.084 11.928-.042 19.95-.042 19.95 3.126-.084 6.8 0 6.8 0s-.043-7.854.042-10.92c.084-2.436 1.14-4.284 3-4.284 1.521 0 2.028 1.176 2.028 3.108.086 6.426-.041 13.524-.041 13.524zm18.08.084c5.027 0 8.871-2.058 8.871-6.72 0-3.192-1.521-5.124-7.181-6.51-3.549-.882-4.478-1.68-4.478-3.024 0-.966.718-1.848 2.323-1.848 1.817 0 2.788 1.428 2.831 3.612 3.928-.126 6.209-.084 6.209-.084-.084-4.788-3.126-8.232-9.166-8.232-5.534 0-8.7 2.688-8.7 6.426 0 3.7 2.112 5.838 6.843 6.93 4.013.924 4.773 1.68 4.773 2.9 0 1.26-.971 1.932-2.323 1.932-2.028 0-3.084-1.134-3.126-3.612l-6.421-.126c.042 5.71 3.717 8.356 9.546 8.356z" fill="#fff" fill-rule="evenodd"/></svg><svg height="19.84" width="224.59" viewBox="-1 -1 224.59 19.84" y="33.31" xmlns="http://www.w3.org/2000/svg"><path d="M4.259 13.511a5.472 5.472 0 003.835-1.351l1.362 1.009c.914-1.3 1.38-1.855 1.38-1.855l-1.416-.99a11.242 11.242 0 00.932-3.168s-.986-.217-2.42-.649a11.021 11.021 0 01-.556 2.269 25.349 25.349 0 01-1.972-1.747c1.4-.828 2.869-1.764 2.869-3.816A3.217 3.217 0 004.759.062C2.41.062.922 1.362.922 3.555a5.419 5.419 0 001.183 3.132A3.6 3.6 0 00-.006 9.928c0 2.232 1.809 3.583 4.265 3.583zm.394-2.2a1.542 1.542 0 01-1.649-1.638 1.881 1.881 0 01.556-1.332 32.353 32.353 0 002.634 2.347 2.293 2.293 0 01-1.54.626zM3.559 3.642a1.225 1.225 0 011.094-1.44 1.027 1.027 0 011 1.206 2.453 2.453 0 01-1.47 2.124 3.537 3.537 0 01-.623-1.887zm16.835 9.635c2.958 0 4.823-1.855 4.841-6.536.018-4-1.47-6.571-4.841-6.571-3.353 0-4.895 2.719-4.859 6.589.016 4.229 1.665 6.518 4.859 6.518zm0-2.305c-1.13 0-1.721-1.188-1.721-4.285 0-2.9.592-4.176 1.7-4.176s1.7 1.206 1.7 4.176c.004 3.295-.659 4.285-1.679 4.285zm12.028 1.693s-.09-.937-.2-2.449a4.2 4.2 0 01-1.04.162 1.094 1.094 0 01-1.237-1.26c-.036-.972-.036-1.962-.036-2.935.771 0 1.488 0 2.331.018 0 0-.036-.432.018-2.3H29.91c.018-1.386.054-2.359.054-2.359s-1.094.018-2.815 0c0 0-.018.937-.036 2.323-.376 0-.789 0-1.2-.018 0 0 .036.558.018 2.34h1.163c0 1.117 0 2.305.018 3.511.036 2.376 1.237 3.313 3.066 3.313a9.054 9.054 0 002.242-.346zm1.056-.018c1.775-.036 2.9-.018 2.9-.018s-.036-2.413 0-4.573c.018-1.081.448-1.891 1.255-1.891.646 0 .861.468.9 1.351.053 2.754-.018 5.725-.018 5.725 1.739 0 2.85.036 2.85.036s.072-3.529-.018-6.572c-.071-1.872-.914-3.042-2.528-3.042a2.822 2.822 0 00-2.545 1.44c-.018-2.43.036-4.375.036-4.375-1.864.018-2.833.018-2.833.018.07 6.68-.001 11.901-.001 11.901zm13.355.594a4 4 0 004.159-3.277c-1.864-.054-2.976-.09-2.976-.09-.143.99-.574 1.458-1.219 1.458-.825 0-1.273-.666-1.381-2.106 3.6-.072 5.558-.09 5.558-.09.144-3.223-.95-5.455-4.267-5.473-2.743 0-4.267 1.944-4.267 4.717-.002 2.808 1.146 4.861 4.391 4.861zm-.072-7.724c.807 0 1.237.792 1.255 2.2-1.058.054-1.9.072-2.6.09.088-1.519.518-2.29 1.343-2.29zm5.377 7.454c1.936-.018 2.9-.018 2.9-.018s-.072-2.017-.036-3.367c.054-2.16.717-2.989 2.725-3.133.036-1.782.09-2.736.09-2.736a3.389 3.389 0 00-3.371 1.926c0-.9.036-1.6.036-1.6-1.631.036-2.366.018-2.366.018.056 4.355.02 8.91.02 8.91zm13.73-2.125s-.089-3.726-.107-8.155c.2-.018.376-.036.556-.036 1.7 0 2.492 1.368 2.492 4.1 0 3.331-1 4.1-2.528 4.1a3.171 3.171 0 01-.415-.009zm-2.976 2.161a20.783 20.783 0 002.672.18c4.213 0 6.364-1.855 6.364-6.338 0-4.284-1.918-6.553-6.221-6.553a18.486 18.486 0 00-2.815.252s.052 5.383.002 12.459zm14.395.234a4 4 0 004.159-3.277c-1.864-.054-2.976-.09-2.976-.09-.143.99-.574 1.458-1.219 1.458-.825 0-1.273-.666-1.381-2.106 3.6-.072 5.558-.09 5.558-.09.144-3.223-.95-5.455-4.267-5.473-2.743 0-4.267 1.944-4.267 4.717 0 2.808 1.146 4.861 4.391 4.861zm-.072-7.724c.807 0 1.237.792 1.255 2.2-1.058.054-1.9.072-2.6.09.088-1.519.518-2.29 1.343-2.29zm8.3 7.292s-.054-2.593.036-12.189c0 0-.914 0-2.887-.036 0 0 .054 3.511-.017 12.189-.003 0 1.072 0 2.865.036zm1.613.126c1.649-.036 2.868-.018 2.868-.018-.072-4.9-.054-9-.054-9-1.81.036-2.868.018-2.868.018.068 6.605.051 9 .051 9zm1.416-9.866a1.509 1.509 0 001.739-1.567A1.49 1.49 0 0088.544-.01a1.51 1.51 0 00-1.793 1.512c-.003 1.027.589 1.567 1.79 1.567zm6.973 10.172c2.152 0 3.873-1.1 4.07-4-2.169 0-3.048-.072-3.048-.072-.018 1.368-.5 1.908-1.094 1.89-.842 0-1.272-.864-1.272-2.592 0-1.783.43-2.773 1.255-2.773.7 0 1.093.738 1.129 1.981 0 0 1.667-.072 2.976-.036a3.8 3.8 0 00-4.07-4c-2.8 0-4.231 1.908-4.231 4.771-.003 3.012 1.342 4.831 4.282 4.831zm5.233-.306c1.65-.036 2.869-.018 2.869-.018-.072-4.9-.054-9-.054-9-1.811.036-2.868.018-2.868.018.068 6.605.05 9 .05 9zm1.417-9.866a1.509 1.509 0 001.739-1.567 1.49 1.49 0 00-1.739-1.512 1.51 1.51 0 00-1.793 1.512c-.003 1.027.589 1.567 1.79 1.567zm6.988 10.119c2.528 0 4.357-1.441 4.357-4.807.018-2.863-1.542-4.717-4.339-4.717-2.671 0-4.321 1.8-4.321 4.627 0 3.113 1.488 4.897 4.303 4.897zm.036-1.945c-.932 0-1.345-.846-1.345-2.952 0-1.783.5-2.683 1.363-2.683.914 0 1.326.99 1.326 2.755 0 2.069-.519 2.879-1.341 2.879zm8.5 1.783a2.792 2.792 0 002.456-1.369c-.018.865-.036 1.513-.036 1.513a46.658 46.658 0 012.385.018c-.072-5.581-.018-9.506-.018-9.506-2.151 0-2.886-.036-2.886-.036s.125 2.628.053 5.149c-.036 1.278-.538 1.872-1.111 1.872-.789 0-1.13-.756-1.13-3.637a28.079 28.079 0 01.144-2.9c-2.008-.09-2.708-.2-2.708-.2a29.991 29.991 0 00-.233 3.781c-.004 3.819.893 5.314 3.08 5.314zm9.913.306c2.133 0 3.765-.882 3.765-2.881 0-1.368-.646-2.2-3.048-2.79-1.506-.378-1.9-.721-1.9-1.3a.84.84 0 01.986-.792c.771 0 1.184.612 1.2 1.549 1.667-.055 2.635-.036 2.635-.036-.036-2.053-1.327-3.529-3.89-3.529-2.349 0-3.694 1.152-3.694 2.754 0 1.585.9 2.5 2.905 2.971 1.7.4 2.026.72 2.026 1.242a.852.852 0 01-.986.828c-.861 0-1.309-.486-1.327-1.548l-2.725-.054c.015 2.45 1.574 3.585 4.049 3.585zm9.069-.36c1.739-.018 2.958 0 2.958 0-.072-6.518-.09-12.531-.09-12.531-1.9.018-2.94.018-2.94.018.086 7.003.068 12.512.068 12.512zm9.537.324s1.99-.018 2.886-.018c0 0 0-5.239-.054-6.536-.053-1.926-.932-3.042-2.635-3.06a3.137 3.137 0 00-2.94 1.872c-.018-.72.018-1.44.018-1.44-1.094.054-2.277.018-2.277.018.036 5.113-.018 8.552-.018 8.552 1.326-.036 2.886 0 2.886 0s-.018-3.367.018-4.681c.036-1.045.484-1.837 1.273-1.837.646 0 .861.5.861 1.333.032 2.753-.022 5.796-.022 5.796zm7.743 4.555c2.367 0 4.661-1.009 4.661-3.115 0-1.548-1.075-2.394-3.783-2.647-1.4-.126-1.7-.324-1.7-.594a.468.468 0 01.18-.36 7.332 7.332 0 00.914.054 3.553 3.553 0 003.869-3.801 3.638 3.638 0 00-1.523-3.187c.986-1.728 1.7-2.809 1.7-2.809-1.739-.576-2.779-.99-2.779-.99-.287 1.513-.52 2.593-.646 3.187a5.363 5.363 0 00-.771-.054 3.666 3.666 0 00-4 3.817 3.463 3.463 0 001.811 3.366 1.859 1.859 0 00-1.291 1.585 1.627 1.627 0 001.184 1.44 2.067 2.067 0 00-1.865 1.908c.001 1.442 1.615 2.199 4.035 2.199zm.125-8.372c-.735 0-1.183-.648-1.183-2.016 0-1.243.413-1.981 1.183-1.981s1.166.774 1.166 1.981c-.004 1.403-.488 2.015-1.17 2.015zm1.793 5.8c0 .54-.627.882-1.595.882-.915.018-1.524-.288-1.524-.864a1.18 1.18 0 01.753-.972c1.842.104 2.362.41 2.362.95zm3.261-2.3c1.937-.018 2.905-.018 2.905-.018s-.072-2.017-.036-3.367c.054-2.16.717-2.989 2.725-3.133.036-1.782.09-2.736.09-2.736a3.389 3.389 0 00-3.371 1.926c0-.9.036-1.6.036-1.6-1.631.036-2.366.018-2.366.018.049 4.347.013 8.902.013 8.902zm10.81.27a4 4 0 004.152-3.285c-1.864-.054-2.976-.09-2.976-.09-.143.99-.574 1.458-1.219 1.458-.825 0-1.273-.666-1.381-2.106 3.6-.072 5.558-.09 5.558-.09.144-3.223-.95-5.455-4.267-5.473-2.743 0-4.267 1.944-4.267 4.717.003 2.808 1.152 4.861 4.396 4.861zm-.072-7.724c.807 0 1.237.792 1.255 2.2-1.058.054-1.9.072-2.6.09.086-1.527.516-2.298 1.341-2.298zm13.678 7.8c-.036-7 .018-12.729.018-12.729-2.367.036-2.959.018-2.959.018.072 1.855.108 3.241.126 4.249a2.686 2.686 0 00-2.223-1.17c-2.277 0-3.478 1.89-3.478 4.717 0 3.15 1.4 4.753 3.6 4.753a2.763 2.763 0 002.51-1.369c-.018.9-.054 1.5-.054 1.5a70.877 70.877 0 012.456.019zm-4.142-2c-.825 0-1.344-.918-1.344-2.88 0-1.783.484-2.845 1.326-2.845.9 0 1.363 1.062 1.381 2.881-.004 2.059-.575 2.833-1.367 2.833zm5.717 1.621c1.65-.036 2.869-.018 2.869-.018-.072-4.9-.054-9-.054-9-1.811.036-2.868.018-2.868.018.067 6.594.049 8.989.049 8.989zm1.417-9.866a1.509 1.509 0 001.739-1.567A1.49 1.49 0 00186.54.001a1.51 1.51 0 00-1.793 1.512c-.004 1.016.587 1.556 1.789 1.556zm7.081 10.172a4 4 0 004.159-3.277c-1.865-.054-2.976-.09-2.976-.09-.144.99-.574 1.458-1.219 1.458-.825 0-1.273-.666-1.381-2.106 3.6-.072 5.558-.09 5.558-.09.143-3.223-.95-5.455-4.267-5.473-2.743 0-4.267 1.944-4.267 4.717-.004 2.797 1.143 4.85 4.389 4.85zm-.072-7.724c.807 0 1.237.792 1.255 2.2-1.058.054-1.9.072-2.6.09.09-1.53.516-2.301 1.341-2.301zm10.379 7.778s1.99-.018 2.886-.018c0 0 0-5.239-.054-6.536-.054-1.926-.932-3.042-2.635-3.06a3.139 3.139 0 00-2.941 1.872c-.017-.72.018-1.44.018-1.44-1.093.054-2.277.018-2.277.018.036 5.113-.017 8.552-.017 8.552 1.326-.036 2.886 0 2.886 0s-.018-3.367.018-4.681c.036-1.045.484-1.837 1.273-1.837.645 0 .86.5.86 1.333.032 2.743-.021 5.786-.021 5.786zm10.163-.63s-.09-.937-.2-2.449a4.2 4.2 0 01-1.04.162 1.094 1.094 0 01-1.237-1.26c-.036-.972-.036-1.962-.036-2.935.771 0 1.488 0 2.331.018 0 0-.036-.432.018-2.3h-2.349c.018-1.386.054-2.359.054-2.359s-1.094.018-2.815 0c0 0-.018.937-.036 2.323-.376 0-.789 0-1.2-.018 0 0 .036.558.018 2.34h1.165c0 1.117 0 2.305.018 3.511.036 2.376 1.237 3.313 3.066 3.313a9.058 9.058 0 002.239-.357zm4.75.666c2.133 0 3.765-.882 3.765-2.881 0-1.368-.646-2.2-3.048-2.79-1.506-.378-1.9-.721-1.9-1.3a.84.84 0 01.986-.792c.771 0 1.184.612 1.2 1.549 1.667-.055 2.635-.036 2.635-.036-.036-2.053-1.327-3.529-3.89-3.529-2.349 0-3.694 1.152-3.694 2.754 0 1.585.9 2.5 2.9 2.971 1.7.4 2.026.72 2.026 1.242a.852.852 0 01-.986.828c-.861 0-1.309-.486-1.327-1.548l-2.725-.054c.02 2.44 1.579 3.575 4.054 3.575z" fill="#fff" fill-rule="evenodd"/></svg><svg height="40.62" width="169.5" viewBox="-1 -1 169.5 40.62" y="102.15" xmlns="http://www.w3.org/2000/svg"><path d="M10.655 30.672c6.125 0 10.518-2.562 10.518-8.694 0-4.116-1.69-6.678-8.617-9.03-3.76-1.3-5.112-2.6-5.112-4.536s.887-3.192 2.7-3.192c2.365 0 3.759 1.848 3.464 5.544 4.013.042 6.97.252 6.97.252.169-7.014-3.38-11-10.434-11C4.061.016.133 2.872.133 8.331c0 4.788 2.408 7.182 7.9 9.2 4.562 1.638 5.66 2.9 5.66 4.788 0 2.184-1.056 3.066-2.83 3.066-2.45 0-3.844-1.974-3.675-5.838-4.478.084-7.181.042-7.181.042-.208 7.135 3.382 11.083 10.648 11.083zm24.247.042s4.689-.042 6.8-.042c0 0 0-12.222-.127-15.246-.127-4.494-2.2-7.1-6.209-7.14a7.4 7.4 0 00-6.928 4.368c-.042-1.68.042-3.36.042-3.36-2.577.126-5.364.042-5.364.042.084 11.928-.043 19.95-.043 19.95 3.126-.084 6.8 0 6.8 0s-.042-7.854.042-10.92c.085-2.436 1.141-4.284 3-4.284 1.52 0 2.027 1.176 2.027 3.108.087 6.426-.04 13.524-.04 13.524zm15.545-.168c2.7 0 5.323-.966 6.59-3.318-.042 2.016-.169 3.318-.169 3.318 3.464-.042 5.491-.042 5.491-.042s.127-6.384-.042-13.356c-.127-5.712-2.788-8.9-9.124-8.9-5.492 0-8.829 3.192-9 7.854 3.844.126 6.294.168 6.294.168.127-2.142.93-3.444 2.577-3.444 1.563 0 2.281 1.134 2.408 3.486.042.42.042.966.042.966-8.279-.294-12.123 2.562-12.123 7.266.002 3.692 2.832 6.002 7.056 6.002zm5.365-9.24c0 3.822-1.563 4.914-3.253 4.914a2.163 2.163 0 01-2.408-2.352c0-1.932 1.479-3.486 5.661-3.36v.8zm18.8 9.282c5.069 0 9.124-2.562 9.589-9.324-5.112 0-7.181-.168-7.181-.168-.043 3.192-1.183 4.452-2.577 4.41-1.985 0-3-2.016-3-6.048 0-4.158 1.014-6.468 2.957-6.468 1.647 0 2.576 1.722 2.661 4.62 0 0 3.928-.168 7.012-.084-.042-5.46-3.591-9.324-9.589-9.324-6.59 0-9.969 4.452-9.969 11.13-.001 7.014 3.167 11.256 10.095 11.256zm23.867.21s2.027-.168 7.223-.252c0 0-2.2-4.872-5.829-13.272 1.013-1.722 2.788-4.662 5.576-8.862 0 0-2.957-.042-7.773-.294 0 0-1.563 3.78-4.773 10.206 0-4.158.042-9.492.084-16.925 0 0-2.154.084-6.8-.042 0 0 .127 7.937 0 27.887 0 0 2.577-.084 6.8.042 0 0-.042-1.218-.042-3.99.465-.756 1.183-1.848 2.112-3.234.758 1.764 1.899 4.662 3.42 8.736zm24.965-.714a6.6 6.6 0 005.787-3.192c-.042 2.016-.085 3.528-.085 3.528 3.8-.042 5.619.042 5.619.042-.169-13.02-.043-22.176-.043-22.176-5.069 0-6.8-.084-6.8-.084s.3 6.132.127 12.012c-.084 2.982-1.267 4.368-2.619 4.368-1.858 0-2.661-1.764-2.661-8.484a64.994 64.994 0 01.338-6.762c-4.731-.21-6.379-.462-6.379-.462a69.18 69.18 0 00-.549 8.82c-.003 8.904 2.109 12.39 7.263 12.39zm14.193 8.526s3.929-.168 7.055-.042c0 0-.254-3.066-.423-10.752a6.321 6.321 0 005.449 2.6c4.816 0 8.195-3.654 8.195-10.962 0-6.258-2.914-11.214-8.152-11.214a7.066 7.066 0 00-6.337 3.528c0-.8.043-1.47.085-2.73 0 0-3.929.084-5.872.042-.002.004.125 14.956-.002 29.53zm10.054-12.474c-2.239 0-3.253-2.1-3.253-6.72 0-4.368 1.1-6.72 3.21-6.72 2.028 0 3.126 2.394 3.126 6.72-.002 4.746-1.058 6.72-3.085 6.72zm15.84 4.158c2.408 0 3.971-1.344 3.971-4.116a3.972 3.972 0 10-3.973 4.116z" fill="#fff" fill-rule="evenodd"/></svg><svg width="134.84" height="40.81" viewBox="-1 -1 134.84 40.81" y="142.77" xmlns="http://www.w3.org/2000/svg"><path data-name="Play on." d="M-.008 28.894c3.464-.084 7.012-.042 7.012-.042l-.169-6.8c7.688.294 13.222-3.108 13.222-10.878 0-7.392-4.436-11.171-13.9-11.171a46.951 46.951 0 00-6.125.42c.087 17.635-.04 28.471-.04 28.471zm6.716-23.31a9.987 9.987 0 011.1-.042c3.928 0 5.407 2.058 5.407 5.628 0 4.536-2.324 5.964-6.463 5.712-.086-5.586-.044-7.812-.044-11.298zm21.966 23.184s-.127-6.048.085-28.433c0 0-2.155 0-6.8-.084 0 0 .126 8.189-.043 28.433-.001 0 2.534 0 6.758.084zm9.208.966c2.7 0 5.323-.966 6.59-3.318-.042 2.016-.169 3.318-.169 3.318 3.464-.042 5.492-.042 5.492-.042s.126-6.384-.043-13.356c-.126-5.712-2.788-8.9-9.124-8.9-5.491 0-8.828 3.192-9 7.854 3.844.126 6.294.168 6.294.168.126-2.142.929-3.444 2.576-3.444 1.563 0 2.282 1.134 2.408 3.486.042.42.042.966.042.966-8.279-.294-12.123 2.562-12.123 7.266.003 3.692 2.833 6.002 7.056 6.002zm5.365-9.24c0 3.822-1.563 4.914-3.252 4.914a2.163 2.163 0 01-2.408-2.352c0-1.932 1.478-3.486 5.66-3.36v.8zm19.9 18.312s1.648-6.552 8.364-31.248c0 0-2.534-.042-7.054-.336 0 0-.8 5.25-3 15.75 0 0-1.352-5.5-3.084-14.532 0 0-2.534.294-7.265.378 0 0 2.745 7.9 7.054 22.05 0 0-.465 2.184-1.816 6.972-.003 0 1.602.168 6.797.966zm28.634-9.156c5.956 0 10.264-3.36 10.264-11.214.043-6.678-3.632-11-10.222-11-6.294 0-10.18 4.2-10.18 10.794.003 7.262 3.509 11.42 10.138 11.42zm.084-4.536c-2.2 0-3.168-1.974-3.168-6.888 0-4.158 1.183-6.258 3.21-6.258 2.155 0 3.126 2.31 3.126 6.426.003 4.83-1.222 6.72-3.165 6.72zm24.374 4.788s4.689-.042 6.8-.042c0 0 0-12.222-.127-15.246-.126-4.494-2.2-7.1-6.209-7.14a7.4 7.4 0 00-6.922 4.368c-.042-1.68.042-3.36.042-3.36-2.576.126-5.364.042-5.364.042.084 11.928-.043 19.95-.043 19.95 3.126-.084 6.8 0 6.8 0s-.042-7.854.043-10.92c.084-2.436 1.14-4.284 3-4.284 1.52 0 2.027 1.176 2.027 3.108.083 6.426-.044 13.524-.044 13.524zm12.631-.42c2.407 0 3.97-1.344 3.97-4.116a3.972 3.972 0 10-3.967 4.116z" fill="#fff" fill-rule="evenodd"/></svg></svg>