<svg width="183" height="90" xmlns="http://www.w3.org/2000/svg" xmlns:xlink="http://www.w3.org/1999/xlink"><svg width="83.28" height="13.66" viewBox="-1 -1 83.28 13.66" x="90.56" y="61.66" xmlns="http://www.w3.org/2000/svg"><path data-name="Learn More" d="M.101 11.257s3.02 0 6.04.063c0 0-.016-.839.015-2.233 0 0-1.207.016-3.5-.047-.1-6.541-.064-8.647-.064-8.647-1.78.032-2.591 0-2.591 0 .1 5.891.1 10.864.1 10.864zm6.861-.016c3.369.032 6.278.143 6.278.143-.016-1.425.016-2.186.016-2.186-2.352-.032-3.735-.095-3.735-.095-.032-.744-.048-1.457-.064-2.106 1.939-.032 3.147 0 3.147 0-.032-1.33-.016-2.075-.016-2.075-1.748.047-2.749.032-3.163.032-.031-1.52-.016-2.439-.016-2.439a361.87 361.87 0 013.783-.063C13.16 1.074 13.16.235 13.16.235 9.076.282 6.835.314 6.835.314c.111 6.398.127 10.927.127 10.927zm6.891-.206a56.67 56.67 0 012.607.032c.079-.57.159-1.124.254-1.679 1.176 0 2.05.016 2.622.032.239 1.41.382 2.17.382 2.17 1.383-.032 2.734-.016 2.734-.016C21.132 5.619 20.004.188 20.004.188s-1.78-.016-3.83.063a904.398 904.398 0 01-2.321 10.78zm4.164-9.011c.4 2.17.715 3.975.97 5.416h-1.955c.429-2.55.826-4.561.985-5.416zm10.331 9.629c1.605-.174 2.686-.285 2.686-.285a250.38 250.38 0 01-2.05-4.339 3.22 3.22 0 001.843-3.151c0-2.455-1.669-3.8-4.72-3.8a14.777 14.777 0 00-2.925.332c.048 6.667-.016 10.721-.016 10.721 1.288-.032 2.591-.016 2.591-.016l-.064-3.468a9.175 9.175 0 00.954-.047 144.24 144.24 0 011.701 4.053zm-2.655-5.844s-.031-1.457-.047-3.595a4.5 4.5 0 01.763-.063 1.631 1.631 0 011.828 1.837c.001 1.378-.906 1.916-2.544 1.821zm6.189 5.226c1.351 0 2.48.032 2.48.032-.112-2.6-.175-4.8-.191-6.145 1.764 4.038 2.908 6.667 2.908 6.667a67.17 67.17 0 002.5-.174c-.159-7.047-.207-11.37-.207-11.37-1.351 0-2.448-.032-2.448-.032.191 3.294.271 5.923.3 7.348-1.7-3.817-2.876-6.81-2.876-6.81-1.383.047-2.512.111-2.512.111.094 6.43.046 10.369.046 10.369zm12.778.016c1.224.032 2.654.063 2.654.063a375.854 375.854 0 01-.016-8.377c.859 3.927 1.4 6.651 1.4 6.651 1.335.047 2.622.032 2.622.032a203.498 203.498 0 011.447-7.015c.159 5.258.1 9.2.1 9.2 1.3-.032 2.655-.079 2.655-.079-.366-6.81-.477-11.4-.477-11.4l-3.656-.127a184.755 184.755 0 01-1.383 6.984c-.779-3.5-1.271-6.445-1.271-6.445-1.892.063-3.672.048-3.672.048a433.765 433.765 0 01-.403 10.465zm16.084.538c2.622 0 4.275-1.631 4.291-5.749.016-3.516-1.3-5.78-4.291-5.78-2.972 0-4.339 2.391-4.307 5.8.015 3.718 1.478 5.729 4.307 5.729zm0-2.027c-1 0-1.526-1.045-1.526-3.769 0-2.55.525-3.674 1.51-3.674s1.51 1.061 1.51 3.674c0 2.898-.588 3.769-1.494 3.769zm10.616 2.09c1.606-.174 2.687-.285 2.687-.285a252.963 252.963 0 01-2.051-4.339 3.22 3.22 0 001.844-3.151c0-2.455-1.669-3.8-4.721-3.8a14.776 14.776 0 00-2.924.332c.047 6.667-.016 10.721-.016 10.721 1.287-.032 2.591-.016 2.591-.016l-.064-3.468a9.175 9.175 0 00.954-.047c1.078 2.486 1.7 4.054 1.7 4.054zm-2.654-5.844s-.032-1.457-.048-3.595a4.511 4.511 0 01.763-.063 1.631 1.631 0 011.828 1.837c0 1.379-.906 1.917-2.543 1.822zm6.268 5.432c3.37.032 6.278.143 6.278.143-.016-1.425.016-2.186.016-2.186-2.352-.032-3.735-.095-3.735-.095-.032-.744-.048-1.457-.064-2.106 1.94-.032 3.148 0 3.148 0-.032-1.33-.016-2.075-.016-2.075-1.749.047-2.75.032-3.163.032-.032-1.52-.016-2.439-.016-2.439 2.177-.047 3.783-.063 3.783-.063-.032-1.378-.032-2.217-.032-2.217-4.085.047-6.326.079-6.326.079.111 6.399.127 10.928.127 10.928z" fill="#fff" fill-rule="evenodd"/></svg><svg width="182.91" height="19.19" viewBox="-1 -1 182.91 19.19" xmlns="http://www.w3.org/2000/svg"><path data-name="100% Whole Grains" d="M3.392 16.646s1.506.046 3.893-.023c0 0-.162-7.694-.162-15.8 0 0-.834-.092-2.317-.276 0 0-1.831 1.037-4.8 2.534 0 0 .441 1.2 1.089 3.317 0 0 .881-.53 2.271-1.221.026 1.402.073 5.157.026 11.469zm12.188.53c4.055 0 6.233-3.087 6.233-8.639 0-5.414-2.178-8.155-6.256-8.155-3.847 0-6.21 2.764-6.21 8.27 0 5.529 2.409 8.524 6.233 8.524zm.023-3.133c-1.483 0-2.224-1.659-2.224-5.46 0-3.571.718-5.137 2.2-5.137 1.39 0 2.155 1.7 2.155 5.045.001 4.239-.833 5.552-2.131 5.552zm13.462 3.133c4.055 0 6.233-3.087 6.233-8.639 0-5.414-2.178-8.155-6.256-8.155-3.846 0-6.21 2.764-6.21 8.27 0 5.529 2.41 8.524 6.233 8.524zm.023-3.133c-1.483 0-2.224-1.659-2.224-5.46 0-3.571.718-5.137 2.2-5.137 1.39 0 2.155 1.7 2.155 5.045.001 4.239-.833 5.552-2.131 5.552zM39.7 8.675c2.132 0 3.754-1.106 3.754-4.285 0-2.81-1.251-4.4-3.707-4.4-2.41 0-3.754 1.659-3.754 4.1 0 2.719 1.043 4.585 3.707 4.585zm.024-1.751c-.719 0-1.089-.76-1.089-2.626 0-1.613.347-2.488 1.089-2.488s1.089.737 1.089 2.511c0 2.004-.394 2.603-1.089 2.603zm-.255 10S41.647 13.307 49.247.66c0 0-.7-.023-1.761-.161 0 0-3.476 6.036-9.709 16.218a15.365 15.365 0 011.692.206zm7.994.161c2.178 0 3.8-1.29 3.8-4.377 0-2.58-1.205-4.354-3.754-4.354-2.456 0-3.754 1.843-3.754 4.262.001 2.671 1.159 4.468 3.708 4.468zm.046-1.774c-.742 0-1.089-.737-1.089-2.672 0-1.636.371-2.442 1.066-2.442.764 0 1.089.76 1.089 2.58 0 1.865-.371 2.533-1.066 2.533zm19.162 1.866s1.807 0 5.422-.184c0 0 .371-4.7 1.645-16.656 0 0-1.158 0-3.777-.092 0 0-.092 2.9-.857 13.523-.348-2.142-1-6.128-1.9-12.026 0 0-1.112-.046-4.032-.046 0 0-.324 2.142-1.877 11.265-.185-2.4-.463-6.635-.764-12.095 0 0-1.831.046-3.823.069.208 2.35.811 7.764 1.506 15.067 0 0 1.32.023 5.213.207 0 0 .51-3.479 1.738-11.081.301 2.257.791 6.22 1.506 12.048zm8.064-.991c2.294-.046 3.753-.023 3.753-.023s-.046-3.087 0-5.851c.023-1.382.58-2.419 1.622-2.419.834 0 1.112.6 1.159 1.728.069 3.525-.023 7.326-.023 7.326 2.247 0 3.684.046 3.684.046s.092-4.515-.023-8.409c-.093-2.4-1.182-3.893-3.267-3.893a3.655 3.655 0 00-3.291 1.843c-.023-3.11.047-5.6.047-5.6-2.41.023-3.661.023-3.661.023.092 8.548 0 15.228 0 15.228zm16.914.691c3.268 0 5.631-1.843 5.631-6.151.023-3.663-1.993-6.036-5.607-6.036-3.453 0-5.585 2.3-5.585 5.921 0 3.985 1.924 6.266 5.561 6.266zm.047-2.488c-1.2 0-1.738-1.083-1.738-3.778 0-2.281.649-3.433 1.761-3.433 1.182 0 1.715 1.267 1.715 3.525 0 2.649-.672 3.686-1.738 3.686zm10.682 2s-.07-3.317.046-15.6c0 0-1.182 0-3.73-.046 0 0 .069 4.492-.024 15.6 0 .004 1.391.004 3.708.05zm7.066.553a5.156 5.156 0 005.376-4.193c-2.41-.069-3.846-.115-3.846-.115-.186 1.267-.742 1.866-1.576 1.866-1.066 0-1.645-.852-1.784-2.7 4.657-.092 7.183-.115 7.183-.115.185-4.124-1.228-6.98-5.515-7-3.545 0-5.514 2.488-5.514 6.036 0 3.598 1.488 6.225 5.676 6.225zm-.088-9.879c1.042 0 1.6 1.014 1.622 2.811-1.367.069-2.456.092-3.36.115.112-1.936.668-2.926 1.738-2.926zm17.772 10c3.846 0 6.325-2.281 6.094-8.869-3.708.023-6.627-.023-6.627-.023.046 1.866.023 2.857.023 2.857l2.8-.069c-.139 2.166-.858 3.133-2.062 3.133-1.738 0-2.572-1.566-2.572-5.552 0-3.525.741-5.322 2.247-5.322 1.182 0 1.831 1.106 1.97 3.387 1.506-.069 3.869-.115 3.869-.115-.139-3.847-2.155-6.289-5.769-6.289-4.148 0-6.28 3.064-6.28 8.34 0 6.055 2.48 8.52 6.303 8.52zm7.275-.461c2.5-.023 3.754-.023 3.754-.023s-.093-2.58-.046-4.308c.069-2.764.927-3.824 3.522-4.008.046-2.281.116-3.5.116-3.5a4.388 4.388 0 00-4.357 2.465c0-1.152.047-2.05.047-2.05-2.109.046-3.059.023-3.059.023.066 5.568.019 11.399.019 11.399zm11.725.322a3.9 3.9 0 003.614-1.82 26.715 26.715 0 01-.092 1.82c1.9-.023 3.012-.023 3.012-.023s.069-3.5-.023-7.326c-.07-3.133-1.53-4.884-5-4.884-3.013 0-4.843 1.751-4.936 4.308 2.109.069 3.453.092 3.453.092.069-1.175.51-1.889 1.413-1.889.857 0 1.251.622 1.321 1.912.023.23.023.53.023.53-4.541-.161-6.65 1.405-6.65 3.986-.007 2.026 1.544 3.293 3.861 3.293zm2.942-5.068c0 2.1-.857 2.7-1.784 2.7a1.187 1.187 0 01-1.321-1.29c0-1.06.811-1.912 3.105-1.843v.438zm5.237 4.7c2.132-.046 3.707-.023 3.707-.023-.092-6.266-.069-11.519-.069-11.519-2.34.046-3.708.023-3.708.023.089 8.453.066 11.517.066 11.517zm1.83-12.625a1.942 1.942 0 002.248-2c0-1.129-.718-1.935-2.248-1.935s-2.317.737-2.317 1.935c-.004 1.307.761 1.999 2.313 1.999zm9.987 13.085s2.572-.023 3.731-.023c0 0 0-6.7-.07-8.363-.069-2.465-1.2-3.893-3.406-3.916a4.058 4.058 0 00-3.8 2.4c-.023-.921.023-1.843.023-1.843-1.417.064-2.946.018-2.946.018a524.936 524.936 0 01-.023 10.943c1.715-.046 3.731 0 3.731 0s-.023-4.308.023-5.99c.046-1.336.626-2.35 1.645-2.35.834 0 1.112.645 1.112 1.7.046 3.529-.024 7.423-.024 7.423zm9.917.046c2.757 0 4.866-1.129 4.866-3.686 0-1.751-.834-2.81-3.939-3.571-1.946-.484-2.456-.922-2.456-1.659a1.082 1.082 0 011.274-1.014c1 0 1.53.783 1.553 1.981 2.155-.069 3.406-.046 3.406-.046-.047-2.626-1.715-4.515-5.028-4.515-3.036 0-4.773 1.474-4.773 3.525 0 2.027 1.158 3.2 3.753 3.8 2.2.507 2.619.922 2.619 1.59a1.1 1.1 0 01-1.275 1.06c-1.112 0-1.691-.622-1.714-1.981l-3.522-.069c.019 3.133 2.035 4.584 5.232 4.584z" fill="#fff" fill-rule="evenodd"/></svg><svg width="161.03" height="14.75" viewBox="-1 -1 161.03 14.75" y="19.19" xmlns="http://www.w3.org/2000/svg"><path data-name="&amp; Other Delicious Ingredients" d="M3.049 9.658a3.911 3.911 0 002.74-.964l.973.72c.653-.926.986-1.324.986-1.324l-1.012-.707a8.018 8.018 0 00.666-2.263s-.7-.154-1.728-.463a7.932 7.932 0 01-.4 1.62A18.225 18.225 0 013.865 5.03c1-.591 2.049-1.26 2.049-2.726a2.3 2.3 0 00-2.51-2.25 2.427 2.427 0 00-2.74 2.494 3.876 3.876 0 00.848 2.233 2.572 2.572 0 00-1.51 2.314c0 1.598 1.293 2.563 3.047 2.563zm.282-1.569a1.1 1.1 0 01-1.178-1.17 1.341 1.341 0 01.4-.952 23.012 23.012 0 001.882 1.672 1.637 1.637 0 01-1.104.45zM2.55 2.612a.875.875 0 01.781-1.029.734.734 0 01.717.861 1.752 1.752 0 01-1.05 1.517 2.523 2.523 0 01-.448-1.349zm12.023 6.879c2.113 0 3.444-1.324 3.457-4.667.013-2.854-1.05-4.693-3.457-4.693s-3.5 1.941-3.47 4.706c.013 3.021 1.191 4.653 3.47 4.653zm0-1.646c-.807 0-1.229-.849-1.229-3.06 0-2.07.422-2.983 1.216-2.983s1.217.861 1.217 2.983c0 2.352-.474 3.06-1.204 3.06zm8.592 1.209s-.064-.669-.141-1.749a3 3 0 01-.742.116.782.782 0 01-.884-.9c-.026-.694-.026-1.4-.026-2.1.551 0 1.063 0 1.665.013 0 0-.026-.309.013-1.646h-1.678c.013-.99.039-1.684.039-1.684s-.781.013-2.01 0c0 0-.013.669-.026 1.659-.269 0-.563 0-.858-.013 0 0 .026.4.013 1.671h.832c0 .8 0 1.646.013 2.507.026 1.7.883 2.366 2.189 2.366a6.467 6.467 0 001.598-.241zm.756-.013c1.267-.026 2.074-.013 2.074-.013s-.026-1.723 0-3.266c.013-.771.32-1.35.9-1.35.461 0 .615.334.64.964.039 1.967-.012 4.089-.012 4.089 1.241 0 2.035.026 2.035.026s.052-2.52-.012-4.693c-.052-1.337-.653-2.173-1.806-2.173a2.016 2.016 0 00-1.818 1.029c-.013-1.736.026-3.124.026-3.124-1.332.013-2.023.013-2.023.013.047 4.769-.004 8.497-.004 8.497zm9.539.424a2.853 2.853 0 002.97-2.34c-1.331-.039-2.125-.064-2.125-.064a.962.962 0 01-.871 1.041c-.589 0-.909-.476-.986-1.5 2.574-.051 3.97-.064 3.97-.064.1-2.3-.679-3.9-3.048-3.909-1.959 0-3.047 1.389-3.047 3.369 0 2.001.819 3.467 3.139 3.467zm-.051-5.516c.576 0 .883.566.9 1.569-.755.039-1.357.051-1.857.064.06-1.08.368-1.633.957-1.633zm3.841 5.323c1.383-.013 2.075-.013 2.075-.013s-.052-1.44-.026-2.4c.038-1.543.512-2.134 1.946-2.237.026-1.273.064-1.954.064-1.954a2.42 2.42 0 00-2.407 1.376c0-.643.026-1.144.026-1.144-1.165.026-1.69.013-1.69.013.038 3.106.012 6.359.012 6.359zm9.808-1.517s-.064-2.661-.076-5.824c.14-.013.269-.026.4-.026 1.216 0 1.779.977 1.779 2.932 0 2.379-.717 2.932-1.805 2.932a2.265 2.265 0 01-.294-.014zm-2.125 1.543a14.837 14.837 0 001.908.129c3.009 0 4.545-1.324 4.545-4.526 0-3.06-1.37-4.68-4.443-4.68a13.2 13.2 0 00-2.01.18s.038 3.844 0 8.897zm10.282.167a2.853 2.853 0 002.97-2.34c-1.331-.039-2.125-.064-2.125-.064a.962.962 0 01-.871 1.041c-.589 0-.909-.476-.986-1.5 2.574-.051 3.97-.064 3.97-.064.1-2.3-.679-3.9-3.048-3.909-1.959 0-3.047 1.389-3.047 3.369 0 2.001.819 3.467 3.137 3.467zm-.053-5.516c.576 0 .883.566.9 1.569-.755.039-1.357.051-1.857.064.062-1.08.37-1.633.957-1.633zm5.928 5.207s-.038-1.852.026-8.7c0 0-.653 0-2.061-.026 0 0 .038 2.507-.013 8.7.002 0 .77 0 2.05.026zm1.153.09c1.178-.026 2.048-.013 2.048-.013-.051-3.5-.038-6.429-.038-6.429-1.293.026-2.049.013-2.049.013.058 4.719.041 6.429.041 6.429zM63.254 2.2a1.078 1.078 0 001.242-1.119 1.064 1.064 0 00-1.242-1.08 1.112 1.112 0 10.002 2.199zm4.981 7.264a2.7 2.7 0 002.907-2.854c-1.55 0-2.177-.051-2.177-.051-.013.977-.358 1.363-.781 1.35-.6 0-.909-.617-.909-1.851 0-1.273.307-1.98.9-1.98.5 0 .781.527.807 1.414 0 0 1.191-.051 2.125-.026a2.711 2.711 0 00-2.906-2.854c-2 0-3.022 1.363-3.022 3.407-.002 2.147.958 3.446 3.058 3.446zm3.739-.218c1.178-.026 2.049-.013 2.049-.013-.051-3.5-.038-6.429-.038-6.429-1.294.026-2.049.013-2.049.013.053 4.719.04 6.429.04 6.429zM72.986 2.2a1.078 1.078 0 001.242-1.119 1.064 1.064 0 00-1.242-1.08 1.112 1.112 0 10.002 2.199zm4.994 7.226c1.805 0 3.111-1.029 3.111-3.433.013-2.044-1.1-3.369-3.1-3.369a2.976 2.976 0 00-3.085 3.3c.003 2.229 1.065 3.502 3.076 3.502zm.025-1.389c-.666 0-.96-.6-.96-2.109 0-1.273.358-1.916.973-1.916.653 0 .947.707.947 1.967.002 1.48-.369 2.059-.958 2.059zm6.07 1.273a2 2 0 001.754-.977c-.013.617-.026 1.08-.026 1.08 1.153-.013 1.7.013 1.7.013-.051-3.986-.013-6.789-.013-6.789-1.536 0-2.061-.026-2.061-.026s.09 1.877.038 3.677c-.025.913-.384 1.337-.794 1.337-.563 0-.806-.54-.806-2.6a20.081 20.081 0 01.1-2.07c-1.434-.064-1.933-.141-1.933-.141a21.421 21.421 0 00-.167 2.7c.007 2.729.648 3.796 2.21 3.796zm7.081.218c1.523 0 2.688-.63 2.688-2.057 0-.977-.46-1.569-2.176-1.993-1.076-.27-1.357-.514-1.357-.926a.6.6 0 01.7-.566.933.933 0 01.858 1.106c1.19-.039 1.882-.026 1.882-.026a2.465 2.465 0 00-2.779-2.52c-1.677 0-2.637.823-2.637 1.967s.64 1.787 2.074 2.121c1.216.283 1.447.514 1.447.887a.608.608 0 01-.7.591.918.918 0 01-.948-1.106l-1.946-.039c.015 1.752 1.129 2.562 2.9 2.562zm6.479-.257c1.242-.013 2.113 0 2.113 0-.052-4.654-.064-8.949-.064-8.949-1.358.013-2.1.013-2.1.013.066 5.002.053 8.937.053 8.937zm6.812.231s1.421-.013 2.061-.013c0 0 0-3.742-.038-4.667-.039-1.376-.666-2.173-1.882-2.186a2.24 2.24 0 00-2.1 1.337c-.013-.514.013-1.029.013-1.029-.781.039-1.627.013-1.627.013.026 3.652-.012 6.107-.012 6.107.947-.026 2.061 0 2.061 0s-.013-2.4.013-3.343a1.127 1.127 0 01.909-1.311c.461 0 .615.36.615.951.027 1.969-.011 4.142-.011 4.142zm5.531 3.253c1.69 0 3.329-.72 3.329-2.224 0-1.106-.768-1.71-2.7-1.89-1-.09-1.217-.231-1.217-.424a.337.337 0 01.128-.257 5.259 5.259 0 00.653.039 2.538 2.538 0 002.766-2.713 2.6 2.6 0 00-1.088-2.276 35.49 35.49 0 011.216-2.006c-1.242-.412-1.984-.707-1.984-.707-.205 1.08-.372 1.852-.461 2.276a3.845 3.845 0 00-.551-.039 2.618 2.618 0 00-2.855 2.726 2.472 2.472 0 001.293 2.4 1.328 1.328 0 00-.922 1.131 1.161 1.161 0 00.845 1.029 1.476 1.476 0 00-1.331 1.363c.001 1.033 1.153 1.573 2.881 1.573zm.092-5.974c-.525 0-.845-.463-.845-1.44 0-.887.294-1.414.845-1.414s.832.553.832 1.414c0 .999-.34 1.44-.832 1.44zm1.28 4.14c0 .386-.448.63-1.139.63-.653.013-1.088-.206-1.088-.617a.843.843 0 01.537-.694c1.319.073 1.69.292 1.69.678zm2.331-1.646c1.383-.013 2.074-.013 2.074-.013s-.051-1.44-.025-2.4c.038-1.543.512-2.134 1.946-2.237.025-1.273.064-1.954.064-1.954a2.419 2.419 0 00-2.407 1.376c0-.643.025-1.144.025-1.144-1.165.026-1.69.013-1.69.013.039 3.103.013 6.356.013 6.356zm7.721.193a2.853 2.853 0 002.97-2.34c-1.331-.039-2.125-.064-2.125-.064a.962.962 0 01-.871 1.041c-.589 0-.909-.476-.986-1.5 2.574-.051 3.97-.064 3.97-.064.1-2.3-.679-3.9-3.048-3.909-1.959 0-3.047 1.389-3.047 3.369-.003 1.998.819 3.464 3.137 3.464zm-.051-5.516c.576 0 .883.566.9 1.569-.755.039-1.357.051-1.857.064.06-1.083.368-1.636.957-1.636zm9.77 5.567c-.026-5 .012-9.09.012-9.09-1.69.026-2.112.013-2.112.013.051 1.324.077 2.314.089 3.034a1.916 1.916 0 00-1.587-.836c-1.626 0-2.484 1.35-2.484 3.369 0 2.25 1 3.394 2.573 3.394a1.974 1.974 0 001.793-.977c-.013.643-.039 1.067-.039 1.067a70.05 70.05 0 011.755.023zm-2.959-1.43c-.589 0-.96-.656-.96-2.057 0-1.273.345-2.032.947-2.032.64 0 .973.759.986 2.057.001 1.479-.409 2.032-.973 2.032zm4.085 1.157c1.178-.026 2.048-.013 2.048-.013-.051-3.5-.038-6.429-.038-6.429-1.293.026-2.049.013-2.049.013.054 4.719.04 6.429.04 6.429zm1.011-7.046a1.078 1.078 0 001.242-1.119 1.064 1.064 0 00-1.242-1.08 1.112 1.112 0 10.004 2.199zm5.058 7.264a2.853 2.853 0 002.97-2.34c-1.331-.039-2.125-.064-2.125-.064a.962.962 0 01-.871 1.041c-.589 0-.909-.476-.986-1.5 2.574-.051 3.97-.064 3.97-.064.1-2.3-.679-3.9-3.048-3.909-1.959 0-3.047 1.389-3.047 3.369.001 2.002.82 3.468 3.138 3.468zm-.054-5.515c.576 0 .883.566.9 1.569-.755.039-1.357.051-1.857.064.064-1.08.372-1.633.957-1.633zm7.414 5.554s1.421-.013 2.061-.013c0 0 0-3.742-.038-4.667-.039-1.376-.666-2.173-1.883-2.186a2.24 2.24 0 00-2.1 1.337c-.013-.514.012-1.029.012-1.029-.781.039-1.626.013-1.626.013.026 3.652-.012 6.107-.012 6.107.947-.026 2.061 0 2.061 0s-.013-2.4.013-3.343a1.126 1.126 0 01.909-1.311c.461 0 .614.36.614.951.031 1.968-.007 4.141-.007 4.141zm7.26-.45s-.064-.669-.141-1.749a3.005 3.005 0 01-.743.116.782.782 0 01-.883-.9c-.026-.694-.026-1.4-.026-2.1.551 0 1.063 0 1.665.013 0 0-.026-.309.013-1.646h-1.678c.013-.99.039-1.684.039-1.684s-.781.013-2.011 0c0 0-.012.669-.025 1.659-.269 0-.564 0-.858-.013 0 0 .026.4.013 1.671h.832c0 .8 0 1.646.013 2.507.025 1.7.883 2.366 2.189 2.366a6.467 6.467 0 001.605-.24zm3.393.476c1.524 0 2.689-.63 2.689-2.057 0-.977-.461-1.569-2.177-1.993-1.075-.27-1.357-.514-1.357-.926a.6.6 0 01.7-.566.933.933 0 01.858 1.106c1.191-.039 1.882-.026 1.882-.026a2.464 2.464 0 00-2.778-2.52c-1.678 0-2.638.823-2.638 1.967s.64 1.787 2.074 2.121c1.217.283 1.447.514 1.447.887a.608.608 0 01-.7.591.917.917 0 01-.947-1.106l-1.947-.039c.017 1.751 1.127 2.561 2.898 2.561z" fill="#fff" fill-rule="evenodd"/></svg><svg width="113.66" height="27.72" viewBox="-1 -1 113.66 27.72" y="33.94" xmlns="http://www.w3.org/2000/svg"><path data-name="Snack up." d="M7.094 20.427c4.083 0 7.012-1.708 7.012-5.8 0-2.744-1.126-4.452-5.745-6.02-2.506-.868-3.408-1.736-3.408-3.024s.592-2.128 1.8-2.128c1.577 0 2.506 1.232 2.309 3.7 2.675.028 4.647.168 4.647.168.112-4.676-2.253-7.336-6.956-7.336-4.056 0-6.675 1.9-6.675 5.544 0 3.192 1.606 4.788 5.267 6.132 3.041 1.092 3.773 1.932 3.773 3.192 0 1.456-.7 2.044-1.886 2.044-1.634 0-2.563-1.316-2.451-3.892-2.985.056-4.787.028-4.787.028-.138 4.76 2.256 7.392 7.1 7.392zm16.165.028s3.126-.028 4.534-.028c0 0 0-8.148-.085-10.164-.084-3-1.464-4.732-4.14-4.76a4.931 4.931 0 00-4.618 2.912c-.028-1.12.028-2.24.028-2.24-1.718.084-3.577.028-3.577.028.057 7.952-.028 13.3-.028 13.3 2.084-.056 4.534 0 4.534 0s-.028-5.236.029-7.28c.056-1.624.76-2.856 2-2.856 1.014 0 1.352.784 1.352 2.072.055 4.284-.029 9.016-.029 9.016zm10.363-.112a4.746 4.746 0 004.393-2.212 32.428 32.428 0 01-.112 2.212c2.309-.028 3.661-.028 3.661-.028s.084-4.256-.029-8.9c-.084-3.808-1.858-5.936-6.083-5.936-3.661 0-5.885 2.128-6 5.236 2.563.084 4.2.112 4.2.112.085-1.428.62-2.3 1.718-2.3 1.042 0 1.521.756 1.6 2.324.028.28.028.644.028.644-5.519-.2-8.082 1.708-8.082 4.844.003 2.467 1.89 4.004 4.706 4.004zm3.577-6.16c0 2.548-1.042 3.276-2.169 3.276a1.442 1.442 0 01-1.605-1.568c0-1.288.986-2.324 3.774-2.24v.532zm12.532 6.188c3.379 0 6.082-1.708 6.392-6.216-3.407 0-4.787-.112-4.787-.112-.028 2.128-.789 2.968-1.718 2.94-1.324 0-2-1.344-2-4.032 0-2.772.676-4.312 1.972-4.312 1.1 0 1.718 1.148 1.774 3.08 0 0 2.619-.112 4.675-.056-.028-3.64-2.394-6.216-6.393-6.216-4.393 0-6.646 2.968-6.646 7.42 0 4.676 2.112 7.504 6.731 7.504zm15.911.14s1.352-.112 4.815-.168c0 0-1.464-3.248-3.886-8.848a128.144 128.144 0 013.717-5.908s-1.971-.028-5.181-.2c0 0-1.042 2.52-3.183 6.8 0-2.772.029-6.328.057-11.284 0 0-1.437.056-4.534-.028 0 0 .084 5.292 0 18.592 0 0 1.718-.056 4.534.028 0 0-.028-.812-.028-2.66.309-.5.788-1.232 1.408-2.156.507 1.184 1.267 3.116 2.281 5.832zm16.643-.476a4.4 4.4 0 003.858-2.128c-.028 1.344-.056 2.352-.056 2.352 2.535-.028 3.745.028 3.745.028-.112-8.68-.028-14.784-.028-14.784-3.379 0-4.534-.056-4.534-.056s.2 4.088.085 8.008c-.057 1.988-.845 2.912-1.746 2.912-1.239 0-1.775-1.176-1.775-5.656a43.433 43.433 0 01.226-4.508c-3.154-.14-4.253-.308-4.253-.308a46.181 46.181 0 00-.366 5.88c0 5.936 1.408 8.26 4.847 8.26zm9.462 5.684s2.619-.112 4.7-.028c0 0-.169-2.044-.281-7.168a4.213 4.213 0 003.633 1.736c3.21 0 5.463-2.436 5.463-7.308 0-4.172-1.943-7.476-5.435-7.476a4.711 4.711 0 00-4.225 2.352c0-.532.029-.98.057-1.82 0 0-2.619.056-3.915.028.003 0 .088 9.971.003 19.684zm6.7-8.316c-1.493 0-2.169-1.4-2.169-4.48 0-2.912.733-4.48 2.141-4.48 1.351 0 2.084 1.6 2.084 4.48.003 3.164-.701 4.483-2.053 4.483zm10.56 2.772a2.442 2.442 0 002.647-2.744 2.648 2.648 0 10-2.644 2.744z" fill="#fff" fill-rule="evenodd"/></svg><svg width="90.56" height="27.88" viewBox="-1 -1 90.56 27.88" y="61.66" xmlns="http://www.w3.org/2000/svg"><path data-name="Play on." d="M-.006 19.252c2.31-.056 4.675-.028 4.675-.028l-.112-4.536c5.125.2 8.814-2.072 8.814-7.252 0-4.928-2.957-7.448-9.265-7.448a31.31 31.31 0 00-4.084.28c.057 11.76-.028 18.984-.028 18.984zm4.478-15.54a6.655 6.655 0 01.732-.028c2.619 0 3.6 1.372 3.6 3.752 0 3.024-1.549 3.976-4.309 3.808-.051-3.724-.023-5.208-.023-7.532zm14.644 15.456s-.085-4.032.056-18.956c0 0-1.436 0-4.534-.056 0 0 .085 5.46-.028 18.956 0 0 1.69 0 4.506.056zm6.139.644a4.746 4.746 0 004.393-2.212c-.028 1.344-.113 2.212-.113 2.212 2.31-.028 3.661-.028 3.661-.028s.085-4.256-.028-8.9c-.084-3.808-1.858-5.936-6.083-5.936-3.661 0-5.885 2.128-6 5.236 2.563.084 4.2.112 4.2.112.084-1.428.62-2.3 1.718-2.3 1.042 0 1.521.756 1.6 2.324.028.28.028.644.028.644-5.519-.2-8.082 1.708-8.082 4.844.003 2.467 1.89 4.004 4.706 4.004zm3.576-6.16c0 2.548-1.042 3.276-2.168 3.276a1.442 1.442 0 01-1.6-1.568c0-1.288.985-2.324 3.773-2.24v.532zM42.094 25.86s1.1-4.368 5.576-20.832c0 0-1.69-.028-4.7-.224 0 0-.535 3.5-2 10.5 0 0-.9-3.668-2.056-9.688 0 0-1.689.2-4.844.252 0 0 1.831 5.264 4.7 14.7 0 0-.309 1.456-1.21 4.648.002 0 1.072.112 4.534.644zm19.093-6.1c3.971 0 6.843-2.24 6.843-7.476.028-4.452-2.422-7.336-6.815-7.336-4.2 0-6.787 2.8-6.787 7.2.002 4.836 2.34 7.608 6.766 7.608zm.056-3.024c-1.464 0-2.112-1.316-2.112-4.592 0-2.772.789-4.172 2.14-4.172 1.437 0 2.084 1.54 2.084 4.284.002 3.219-.814 4.476-2.11 4.476zm16.25 3.192s3.126-.028 4.534-.028c0 0 0-8.148-.085-10.164-.084-3-1.464-4.732-4.139-4.76a4.931 4.931 0 00-4.619 2.912c-.028-1.12.028-2.24.028-2.24-1.718.084-3.576.028-3.576.028.056 7.952-.029 13.3-.029 13.3 2.084-.056 4.534 0 4.534 0s-.028-5.236.029-7.28c.056-1.624.76-2.856 2-2.856 1.014 0 1.352.784 1.352 2.072.057 4.28-.028 9.012-.028 9.012zm8.42-.28a2.442 2.442 0 002.647-2.744 2.648 2.648 0 10-2.645 2.74z" fill="#fff" fill-rule="evenodd"/></svg></svg>