<svg width="237" height="206" xmlns="http://www.w3.org/2000/svg" xmlns:xlink="http://www.w3.org/1999/xlink"><svg width="123.78" height="35.59" viewBox="-1 -1 123.78 35.59" y="170.28" xmlns="http://www.w3.org/2000/svg"><path data-name="Rounded Rectangle 1" d="M4.486 1.515h112.783a3 3 0 013 3v24.579a3 3 0 01-3 3H4.486a3 3 0 01-3-3V4.515a3 3 0 013-3z" fill="none" stroke="#fff" stroke-linecap="round" stroke-width="3"/></svg><svg width="89.13" height="14.5" viewBox="-1 -1 89.13 14.5" x="127.44" y="150.31" xmlns="http://www.w3.org/2000/svg"><path data-name="Learn More" d="M.087 12.064s3.238 0 6.476.067c0 0-.017-.9.017-2.394 0 0-1.3.017-3.749-.051-.1-7.013-.068-9.271-.068-9.271-1.909.034-2.778 0-2.778 0 .102 6.317.102 11.649.102 11.649zm7.357-.017c3.613.033 6.732.152 6.732.152-.017-1.528.017-2.343.017-2.343-2.522-.034-4.005-.1-4.005-.1-.034-.8-.051-1.562-.068-2.258a87.78 87.78 0 013.374 0c-.034-1.427-.017-2.225-.017-2.225-1.875.051-2.948.034-3.391.034-.034-1.63-.017-2.615-.017-2.615 2.335-.051 4.056-.068 4.056-.068-.034-1.477-.034-2.377-.034-2.377-4.38.051-6.783.085-6.783.085.119 6.858.136 11.715.136 11.715zm7.389-.221c1.517-.017 2.8.034 2.8.034.085-.612.17-1.206.273-1.8 1.261 0 2.2.017 2.812.034.256 1.511.409 2.326.409 2.326 1.483-.034 2.931-.017 2.931-.017C22.644 6.018 21.434.194 21.434.194s-1.909-.017-4.107.068a1075.058 1075.058 0 01-2.494 11.564zm4.465-9.662c.426 2.326.767 4.262 1.04 5.807h-2.1c.463-2.734.89-4.89 1.06-5.807zm11.077 10.324c1.721-.187 2.88-.306 2.88-.306-1.108-2.309-1.824-3.82-2.2-4.652a3.453 3.453 0 001.977-3.379c0-2.632-1.789-4.076-5.062-4.076a15.828 15.828 0 00-3.136.357c.051 7.149-.017 11.5-.017 11.5 1.38-.034 2.778-.017 2.778-.017l-.068-3.719a9.8 9.8 0 001.023-.051 152.472 152.472 0 011.825 4.343zm-2.846-6.269s-.034-1.562-.051-3.854a4.818 4.818 0 01.818-.068 1.749 1.749 0 011.96 1.969c0 1.481-.972 2.058-2.727 1.953zm6.636 5.6c1.449 0 2.659.034 2.659.034a216.765 216.765 0 01-.2-6.589c1.892 4.33 3.119 7.149 3.119 7.149 1.6-.085 2.676-.187 2.676-.187-.17-7.556-.222-12.192-.222-12.192C40.748.034 39.572 0 39.572 0c.2 3.532.29 6.351.324 7.879-1.823-4.092-3.085-7.3-3.085-7.3a138.41 138.41 0 00-2.693.119c.098 6.9.046 11.128.046 11.128zm13.7.017c1.312.034 2.846.068 2.846.068a406.776 406.776 0 01-.017-8.983c.92 4.211 1.5 7.132 1.5 7.132 1.432.051 2.812.034 2.812.034a218.283 218.283 0 011.551-7.523c.17 5.638.1 9.866.1 9.866 1.4-.034 2.846-.085 2.846-.085-.392-7.3-.511-12.226-.511-12.226l-3.92-.136a196.105 196.105 0 01-1.483 7.489A148.033 148.033 0 0152.226.561c-2.028.068-3.937.051-3.937.051a440.246 440.246 0 01-.424 11.231zm17.246.577c2.812 0 4.585-1.749 4.6-6.164.017-3.77-1.4-6.2-4.6-6.2-3.187 0-4.652 2.564-4.618 6.215.017 4 1.585 6.155 4.618 6.155zm0-2.173c-1.073 0-1.636-1.121-1.636-4.042 0-2.734.563-3.939 1.619-3.939s1.619 1.137 1.619 3.939c0 3.115-.63 4.049-1.602 4.049zm11.384 2.241c1.721-.187 2.88-.306 2.88-.306-1.108-2.309-1.824-3.82-2.2-4.652a3.453 3.453 0 001.981-3.372c0-2.632-1.789-4.076-5.061-4.076a15.832 15.832 0 00-3.136.357c.051 7.149-.017 11.5-.017 11.5 1.38-.034 2.778-.017 2.778-.017l-.068-3.719a9.791 9.791 0 001.022-.051 158.26 158.26 0 011.821 4.343zm-2.846-6.262s-.034-1.562-.051-3.854a4.808 4.808 0 01.818-.068 1.749 1.749 0 011.96 1.969c0 1.481-.972 2.058-2.727 1.953zm6.721 5.825c3.613.033 6.731.152 6.731.152-.017-1.528.017-2.343.017-2.343-2.522-.034-4-.1-4-.1-.034-.8-.051-1.562-.068-2.258 2.079-.034 3.375 0 3.375 0-.034-1.427-.017-2.225-.017-2.225-1.875.051-2.949.034-3.392.034-.034-1.63-.017-2.615-.017-2.615 2.335-.051 4.056-.068 4.056-.068-.034-1.477-.034-2.377-.034-2.377-4.38.051-6.783.085-6.783.085.118 6.861.132 11.718.132 11.718z" fill="#fff" fill-rule="evenodd"/></svg><svg width="127.44" height="19.97" viewBox="-1 -1 127.44 19.97" y="150.31" xmlns="http://www.w3.org/2000/svg"><path data-name="Learn More" d="M.159 17.368s4.661 0 9.322.1c0 0-.025-1.3.025-3.447 0 0-1.864.025-5.4-.073-.147-10.094-.1-13.345-.1-13.345-2.747.049-4 0-4 0 .153 9.09.153 16.765.153 16.765zm10.589-.024c5.2.048 9.69.22 9.69.22-.025-2.2.024-3.373.024-3.373-3.63-.049-5.765-.147-5.765-.147-.049-1.149-.073-2.249-.1-3.251 2.993-.049 4.857 0 4.857 0-.049-2.053-.024-3.2-.024-3.2-2.7.074-4.244.049-4.882.049-.049-2.346-.024-3.764-.024-3.764 3.36-.073 5.838-.1 5.838-.1-.049-2.126-.049-3.422-.049-3.422-6.3.074-9.763.123-9.763.123.173 9.874.198 16.865.198 16.865zm10.639-.313a87.296 87.296 0 014.023.049c.123-.88.245-1.736.392-2.591 1.816 0 3.165.024 4.048.049a203.9 203.9 0 00.589 3.348c2.134-.049 4.219-.024 4.219-.024C32.622 8.672 30.88.288 30.88.288s-2.747-.024-5.912.1c-2.088 9.943-3.581 16.643-3.581 16.643zm6.427-13.908c.613 3.349 1.1 6.135 1.5 8.36h-3.027c.665-3.941 1.279-7.045 1.524-8.365zm15.944 14.861c2.478-.269 4.146-.44 4.146-.44-1.595-3.324-2.625-5.5-3.165-6.7a4.969 4.969 0 002.846-4.864c0-3.788-2.576-5.866-7.286-5.866a22.816 22.816 0 00-4.513.513c.073 10.29-.025 16.548-.025 16.548 1.987-.049 4-.025 4-.025l-.1-5.353a14.078 14.078 0 001.471-.073 226.17 226.17 0 012.623 6.255zm-4.1-9.019s-.05-2.249-.074-5.548a6.873 6.873 0 011.177-.1 2.517 2.517 0 012.821 2.835c.005 2.124-1.395 2.955-3.923 2.808zm9.551 8.066c2.085 0 3.827.049 3.827.049-.172-4.009-.27-7.406-.295-9.484 2.723 6.233 4.49 10.29 4.49 10.29 2.306-.122 3.851-.269 3.851-.269A1702.211 1702.211 0 0160.763.068c-2.085 0-3.778-.049-3.778-.049.295 5.084.417 9.142.466 11.341A284.727 284.727 0 0153.011.85c-2.134.074-3.876.171-3.876.171.152 9.919.075 16.01.075 16.01zm19.721.024c1.889.049 4.1.1 4.1.1a585.36 585.36 0 01-.025-12.93 600.694 600.694 0 012.159 10.266c2.061.073 4.048.049 4.048.049.736-3.984 1.668-8.311 2.232-10.828.245 8.115.147 14.2.147 14.2 2.012-.049 4.1-.122 4.1-.122-.564-10.511-.736-17.6-.736-17.6l-5.642-.2a284.28 284.28 0 01-2.134 10.779A216.4 216.4 0 0175.216.821c-2.919.1-5.666.073-5.666.073-.251 9.361-.619 16.156-.619 16.156zm24.825.831c4.047 0 6.6-2.517 6.623-8.872.024-5.426-2.012-8.921-6.623-8.921-4.588 0-6.7 3.69-6.648 8.945.025 5.739 2.28 8.843 6.649 8.843zm0-3.128c-1.546 0-2.355-1.613-2.355-5.817 0-3.936.809-5.671 2.33-5.671s2.33 1.638 2.33 5.671c.001 4.467-.906 5.812-2.304 5.812zm16.385 3.226c2.478-.269 4.146-.44 4.146-.44-1.595-3.324-2.625-5.5-3.165-6.7a4.969 4.969 0 002.846-4.864c0-3.788-2.576-5.866-7.286-5.866a22.816 22.816 0 00-4.513.513c.073 10.29-.025 16.548-.025 16.548 1.987-.049 4-.025 4-.025l-.1-5.353a14.083 14.083 0 001.472-.073 211.051 211.051 0 012.626 6.255zm-4.1-9.019s-.049-2.249-.073-5.548a6.873 6.873 0 011.177-.1 2.517 2.517 0 012.821 2.835c.004 2.124-1.394 2.955-3.921 2.808zm9.675 8.384c5.2.048 9.689.22 9.689.22-.024-2.2.025-3.373.025-3.373-3.631-.049-5.765-.147-5.765-.147-.049-1.149-.074-2.249-.1-3.251 2.993-.049 4.857 0 4.857 0-.049-2.053-.024-3.2-.024-3.2-2.7.074-4.244.049-4.882.049-.049-2.346-.025-3.764-.025-3.764 3.361-.073 5.839-.1 5.839-.1-.049-2.126-.049-3.422-.049-3.422-6.3.074-9.764.123-9.764.123.178 9.869.203 16.86.203 16.86z" fill="#6fb0e3" fill-rule="evenodd"/></svg><svg width="95.44" height="33.31" viewBox="-1 -1 95.44 33.31" x="123.78" y="170.28" xmlns="http://www.w3.org/2000/svg"><path data-name="100%" d="M6.164 30.355s2.746.084 7.1-.042c0 0-.3-14.027-.3-28.81 0 0-1.521-.168-4.224-.5 0 0-3.337 1.89-8.744 4.619 0 0 .8 2.184 1.985 6.048 0 0 1.605-.966 4.14-2.226.043 2.558.128 9.404.043 20.911zm22.219.966c7.392 0 11.363-5.628 11.363-15.749 0-9.87-3.971-14.867-11.4-14.867-7.012 0-11.321 5.039-11.321 15.077 0 10.079 4.389 15.539 11.358 15.539zm.042-5.712c-2.7 0-4.055-3.024-4.055-9.953 0-6.51 1.309-9.366 4.013-9.366 2.534 0 3.928 3.108 3.928 9.2.001 7.725-1.52 10.119-3.886 10.119zm24.543 5.712c7.392 0 11.363-5.628 11.363-15.749 0-9.87-3.971-14.867-11.4-14.867-7.012 0-11.32 5.039-11.32 15.077-.005 10.079 4.388 15.539 11.357 15.539zm.042-5.712c-2.7 0-4.055-3.024-4.055-9.953 0-6.51 1.309-9.366 4.013-9.366 2.534 0 3.928 3.108 3.928 9.2.001 7.725-1.52 10.119-3.886 10.119zm19.347-9.785c3.886 0 6.843-2.016 6.843-7.812 0-5.123-2.281-8.021-6.758-8.021-4.393 0-6.843 3.024-6.843 7.475 0 4.956 1.901 8.358 6.758 8.358zm.042-3.192c-1.309 0-1.985-1.386-1.985-4.788 0-2.94.634-4.535 1.985-4.535s1.986 1.343 1.986 4.577c0 3.654-.718 4.746-1.985 4.746zm-.464 18.227s3.97-6.594 17.825-29.65c0 0-1.267-.042-3.21-.294 0 0-6.336 11-17.7 29.566a27.983 27.983 0 013.085.378zm14.573.294c3.97 0 6.927-2.352 6.927-7.98 0-4.7-2.2-7.937-6.843-7.937-4.477 0-6.843 3.36-6.843 7.769 0 4.872 2.112 8.148 6.759 8.148zm.084-3.234c-1.351 0-1.985-1.344-1.985-4.872 0-2.981.676-4.451 1.943-4.451 1.394 0 1.985 1.386 1.985 4.7 0 3.405-.676 4.623-1.943 4.623z" fill="#fff" fill-rule="evenodd"/></svg><svg width="228.41" height="33.31" viewBox="-1 -1 228.41 33.31" y="20.84" xmlns="http://www.w3.org/2000/svg"><path data-name="Whole Grains" d="M18.166 31.321s3.295 0 9.884-.336c0 0 .676-8.568 3-30.364 0 0-2.112 0-6.885-.168 0 0-.169 5.291-1.563 24.652-.634-3.906-1.816-11.171-3.464-21.922 0 0-2.028-.084-7.35-.084 0 0-.591 3.905-3.421 20.536-.338-4.367-.845-12.095-1.394-22.048 0 0-3.337.084-6.97.126.38 4.283 1.478 14.153 2.746 27.466 0 0 2.408.042 9.5.378 0 0 .929-6.342 3.168-20.2.552 4.115 1.44 11.337 2.749 21.964zm14.7-1.806c4.182-.084 6.843-.042 6.843-.042s-.085-5.628 0-10.667c.042-2.52 1.056-4.41 2.957-4.41 1.521 0 2.028 1.092 2.112 3.15.127 6.425-.042 13.355-.042 13.355 4.1 0 6.716.084 6.716.084s.169-8.232-.042-15.329c-.169-4.368-2.154-7.1-5.956-7.1a6.661 6.661 0 00-6 3.36c-.042-5.67.085-10.205.085-10.205-4.393.042-6.674.042-6.674.042.171 15.583.002 27.762.002 27.762zm30.837 1.26c5.956 0 10.264-3.36 10.264-11.213.043-6.678-3.632-11-10.222-11-6.294 0-10.18 4.2-10.18 10.794.001 7.261 3.507 11.419 10.139 11.419zm.085-4.536c-2.2 0-3.168-1.974-3.168-6.887 0-4.158 1.183-6.258 3.21-6.258 2.154 0 3.126 2.31 3.126 6.426.001 4.829-1.224 6.719-3.167 6.719zm19.475 3.654s-.127-6.048.084-28.432c0 0-2.154 0-6.8-.084 0 0 .127 8.189-.042 28.432-.001 0 2.534 0 6.758.085zm12.883 1.008c4.942 0 8.575-2.6 9.8-7.644-4.393-.126-7.012-.21-7.012-.21-.338 2.31-1.352 3.4-2.873 3.4-1.943 0-3-1.554-3.252-4.914 8.49-.168 13.094-.21 13.094-.21.338-7.517-2.238-12.725-10.053-12.767-6.463 0-10.053 4.536-10.053 11 0 6.557 2.703 11.345 10.353 11.345zm-.169-18.017c1.9 0 2.914 1.848 2.957 5.124-2.492.126-4.478.168-6.125.21.211-3.524 1.225-5.334 3.168-5.334zm32.4 18.227c7.012 0 11.531-4.158 11.109-16.169-6.758.042-12.081-.042-12.081-.042.085 3.4.042 5.208.042 5.208l5.112-.126c-.254 3.947-1.563 5.711-3.76 5.711-3.168 0-4.689-2.856-4.689-10.121 0-6.426 1.352-9.7 4.1-9.7 2.154 0 3.337 2.016 3.59 6.174 2.746-.126 7.054-.21 7.054-.21-.253-7.014-3.928-11.465-10.517-11.465-7.561 0-11.448 5.585-11.448 15.2-.002 11.046 4.518 15.54 11.488 15.54zm13.264-.84c4.562-.042 6.843-.042 6.843-.042s-.169-4.7-.084-7.854c.126-5.039 1.689-6.971 6.42-7.307.085-4.158.211-6.384.211-6.384a8 8 0 00-7.941 4.494c0-2.1.085-3.738.085-3.738-3.844.084-5.576.042-5.576.042.127 10.164.042 20.789.042 20.789zm21.374.588c2.7 0 5.322-.966 6.59-3.318-.043 2.016-.169 3.318-.169 3.318 3.463-.042 5.491-.042 5.491-.042s.127-6.384-.042-13.355c-.127-5.712-2.788-8.9-9.124-8.9-5.491 0-8.828 3.192-9 7.854 3.843.126 6.293.168 6.293.168.127-2.142.93-3.444 2.577-3.444 1.563 0 2.281 1.134 2.408 3.486.042.42.042.966.042.966-8.279-.294-12.123 2.562-12.123 7.265.003 3.692 2.833 6.002 7.057 6.002zm5.365-9.24c0 3.822-1.563 4.914-3.253 4.914a2.163 2.163 0 01-2.408-2.352c0-1.932 1.479-3.485 5.661-3.359v.8zm9.547 8.568c3.886-.084 6.759-.042 6.759-.042-.169-11.423-.127-21-.127-21-4.266.084-6.759.042-6.759.042.169 15.414.127 21 .127 21zm3.337-23.015c2.83 0 4.1-1.554 4.1-3.653 0-2.058-1.309-3.528-4.1-3.528s-4.224 1.344-4.224 3.528c0 2.393 1.394 3.653 4.224 3.653zm18.206 23.855s4.689-.042 6.8-.042c0 0 0-12.221-.127-15.245-.127-4.494-2.2-7.1-6.209-7.14a7.4 7.4 0 00-6.928 4.368c-.042-1.68.043-3.36.043-3.36-2.577.126-5.365.042-5.365.042.085 11.927-.042 19.949-.042 19.949 3.126-.084 6.8 0 6.8 0s-.043-7.854.042-10.919c.084-2.436 1.14-4.284 3-4.284 1.521 0 2.027 1.176 2.027 3.108.086 6.425-.041 13.523-.041 13.523zm18.08.084c5.027 0 8.87-2.058 8.87-6.72 0-3.192-1.52-5.123-7.18-6.509-3.549-.882-4.478-1.68-4.478-3.024 0-.966.718-1.848 2.323-1.848 1.817 0 2.788 1.428 2.83 3.612 3.929-.126 6.21-.084 6.21-.084-.085-4.788-3.126-8.232-9.166-8.232-5.534 0-8.7 2.688-8.7 6.426 0 3.7 2.112 5.838 6.843 6.929 4.013.924 4.773 1.68 4.773 2.9 0 1.26-.971 1.932-2.323 1.932-2.028 0-3.084-1.134-3.126-3.612l-6.42-.126c.044 5.71 3.715 8.356 9.544 8.356z" fill="#fff" fill-rule="evenodd"/></svg><svg width="236.97" height="20.84" viewBox="-1 -1 236.97 20.84" xmlns="http://www.w3.org/2000/svg"><path data-name="&amp; Other Delicious Ingredients" d="M4.495 14.255a5.779 5.779 0 004.049-1.425l1.438 1.064c.965-1.368 1.457-1.957 1.457-1.957l-1.495-1.045a11.868 11.868 0 00.984-3.344s-1.041-.228-2.555-.684a11.638 11.638 0 01-.587 2.394 26.983 26.983 0 01-2.081-1.843c1.476-.874 3.028-1.862 3.028-4.029A3.4 3.4 0 005.024.061C2.545.061.975 1.429.975 3.747a5.72 5.72 0 001.249 3.307 3.8 3.8 0 00-2.233 3.42c.001 2.356 1.912 3.781 4.504 3.781zm.416-2.318a1.627 1.627 0 01-1.741-1.729 1.985 1.985 0 01.587-1.406 34.135 34.135 0 002.782 2.47 2.42 2.42 0 01-1.628.665zM3.757 3.842a1.293 1.293 0 011.154-1.52 1.084 1.084 0 011.06 1.273 2.591 2.591 0 01-1.552 2.243 3.736 3.736 0 01-.662-1.996zm17.767 10.166c3.122 0 5.09-1.957 5.109-6.9.019-4.219-1.552-6.936-5.109-6.936-3.538 0-5.166 2.869-5.128 6.955.019 4.468 1.76 6.881 5.128 6.881zm0-2.432c-1.192 0-1.816-1.254-1.816-4.522 0-3.06.624-4.409 1.8-4.409s1.8 1.273 1.8 4.409c-.006 3.477-.706 4.522-1.784 4.522zm12.7 1.786s-.095-.988-.208-2.584a4.431 4.431 0 01-1.1.171 1.155 1.155 0 01-1.306-1.33c-.038-1.026-.038-2.071-.038-3.1.814 0 1.57 0 2.46.019 0 0-.038-.456.019-2.433h-2.48c.019-1.463.057-2.489.057-2.489s-1.154.019-2.971 0c0 0-.019.988-.038 2.451-.4 0-.833 0-1.268-.019 0 0 .038.589.019 2.471h1.23c0 1.178 0 2.432.019 3.705.038 2.508 1.306 3.5 3.236 3.5a9.555 9.555 0 002.365-.362zm1.116-.019c1.873-.038 3.065-.019 3.065-.019s-.038-2.546 0-4.826c.019-1.14.473-2 1.325-2 .681 0 .908.494.946 1.425.057 2.907-.019 6.042-.019 6.042 1.835 0 3.009.038 3.009.038s.076-3.724-.019-6.935c-.076-1.976-.965-3.212-2.668-3.212a2.977 2.977 0 00-2.687 1.521c-.019-2.566.038-4.618.038-4.618-1.968.019-2.99.019-2.99.019a586.601 586.601 0 01-.005 12.565zm14.092.626a4.218 4.218 0 004.39-3.458c-1.968-.057-3.141-.095-3.141-.095-.151 1.045-.606 1.539-1.287 1.539-.871 0-1.344-.7-1.457-2.223 3.8-.076 5.866-.095 5.866-.095.151-3.4-1-5.758-4.5-5.777-2.9 0-4.5 2.053-4.5 4.979-.007 2.965 1.204 5.13 4.629 5.13zm-.076-8.151c.852 0 1.306.836 1.325 2.318-1.116.057-2.006.076-2.744.095.094-1.595.549-2.412 1.419-2.412zm5.676 7.866c2.044-.019 3.065-.019 3.065-.019s-.076-2.128-.038-3.553c.057-2.28.757-3.154 2.876-3.306.038-1.881.095-2.889.095-2.889a3.575 3.575 0 00-3.557 2.034c0-.95.038-1.692.038-1.692-1.722.038-2.5.019-2.5.019.059 4.6.021 9.407.021 9.407zm14.493-2.242s-.095-3.933-.113-8.608c.208-.019.4-.038.586-.038 1.8 0 2.63 1.444 2.63 4.333 0 3.515-1.059 4.332-2.668 4.332a3.333 3.333 0 01-.435-.018zm-3.141 2.28a21.928 21.928 0 002.819.19c4.447 0 6.718-1.957 6.718-6.688 0-4.523-2.025-6.917-6.566-6.917a19.5 19.5 0 00-2.971.266s.06 5.683 0 13.15zm15.194.247a4.218 4.218 0 004.39-3.458c-1.968-.057-3.142-.095-3.142-.095-.151 1.045-.605 1.539-1.286 1.539-.871 0-1.344-.7-1.457-2.223 3.8-.076 5.866-.095 5.866-.095.151-3.4-1-5.758-4.5-5.777-2.895 0-4.5 2.053-4.5 4.979-.005 2.965 1.204 5.13 4.629 5.13zm-.076-8.151c.851 0 1.306.836 1.324 2.318-1.116.057-2 .076-2.743.095.094-1.595.548-2.412 1.419-2.412zm8.76 7.695s-.057-2.736.038-12.864c0 0-.965 0-3.047-.038 0 0 .057 3.705-.018 12.864 0 .001 1.135.001 3.027.039zm1.7.133c1.74-.038 3.027-.019 3.027-.019-.076-5.168-.057-9.5-.057-9.5-1.911.038-3.027.019-3.027.019.078 6.974.06 9.501.06 9.501zm1.494-10.413a1.593 1.593 0 001.836-1.653 1.573 1.573 0 00-1.836-1.6c-1.248 0-1.892.608-1.892 1.6.003 1.089.628 1.654 1.895 1.654zm7.364 10.736c2.27 0 4.087-1.159 4.295-4.218-2.289 0-3.217-.076-3.217-.076-.019 1.444-.529 2.014-1.154 2-.889 0-1.343-.912-1.343-2.736 0-1.881.454-2.926 1.324-2.926.738 0 1.154.779 1.192 2.09 0 0 1.76-.076 3.141-.038a4.007 4.007 0 00-4.295-4.219c-2.952 0-4.466 2.015-4.466 5.036 0 3.169 1.42 5.087 4.523 5.087zm5.524-.323c1.741-.038 3.028-.019 3.028-.019-.076-5.168-.057-9.5-.057-9.5-1.911.038-3.028.019-3.028.019.076 6.974.057 9.501.057 9.501zm1.5-10.413a1.593 1.593 0 001.836-1.653 1.573 1.573 0 00-1.836-1.6c-1.249 0-1.892.608-1.892 1.6-.008 1.089.619 1.654 1.892 1.654zm7.379 10.679c2.668 0 4.6-1.52 4.6-5.073.018-3.021-1.628-4.979-4.58-4.979-2.819 0-4.56 1.9-4.56 4.884-.006 3.288 1.561 5.169 4.535 5.169zm.038-2.052c-.984 0-1.419-.893-1.419-3.116 0-1.881.53-2.831 1.438-2.831.965 0 1.4 1.045 1.4 2.907-.005 2.186-.553 3.041-1.424 3.041zm8.969 1.881a2.95 2.95 0 002.592-1.444c-.019.912-.038 1.6-.038 1.6 1.7-.019 2.517.019 2.517.019-.076-5.89-.019-10.033-.019-10.033-2.271 0-3.047-.038-3.047-.038s.133 2.775.057 5.435c-.038 1.349-.567 1.976-1.173 1.976-.833 0-1.192-.8-1.192-3.838a29.937 29.937 0 01.151-3.06c-2.119-.095-2.857-.209-2.857-.209a31.67 31.67 0 00-.246 3.991c-.005 4.029.941 5.602 3.25 5.602zm10.463.323c2.252 0 3.974-.931 3.974-3.04 0-1.444-.682-2.318-3.217-2.945-1.59-.4-2.006-.76-2.006-1.368a.887.887 0 011.041-.836c.813 0 1.249.646 1.267 1.634 1.76-.057 2.782-.038 2.782-.038-.038-2.166-1.4-3.725-4.106-3.725-2.479 0-3.9 1.217-3.9 2.908 0 1.672.946 2.641 3.065 3.135 1.8.418 2.139.76 2.139 1.311a.9.9 0 01-1.041.874c-.908 0-1.382-.513-1.4-1.634l-2.877-.057c.016 2.586 1.663 3.786 4.274 3.786zm9.573-.38c1.836-.019 3.123 0 3.123 0-.076-6.878-.095-13.225-.095-13.225-2.006.019-3.1.019-3.1.019.086 7.391.067 13.207.067 13.207zm10.066.342s2.1-.019 3.047-.019c0 0 0-5.529-.057-6.9-.057-2.033-.984-3.212-2.781-3.231a3.312 3.312 0 00-3.1 1.977c-.019-.76.019-1.521.019-1.521-1.154.057-2.4.019-2.4.019.038 5.4-.019 9.026-.019 9.026 1.4-.038 3.047 0 3.047 0s-.019-3.553.019-4.94c.037-1.1.511-1.938 1.343-1.938.681 0 .908.532.908 1.406.026 2.911-.031 6.122-.031 6.122zm8.174 4.808c2.5 0 4.92-1.064 4.92-3.288 0-1.634-1.135-2.527-3.993-2.793-1.476-.133-1.8-.342-1.8-.627a.492.492 0 01.189-.38 7.755 7.755 0 00.965.057 3.75 3.75 0 004.087-4.009 3.842 3.842 0 00-1.608-3.364c1.04-1.824 1.8-2.964 1.8-2.964-1.835-.608-2.933-1.045-2.933-1.045-.3 1.6-.548 2.736-.681 3.363a5.659 5.659 0 00-.813-.057 3.87 3.87 0 00-4.22 4.029 3.654 3.654 0 001.911 3.553 1.961 1.961 0 00-1.362 1.672 1.716 1.716 0 001.248 1.52 2.181 2.181 0 00-1.967 2.014c-.005 1.522 1.695 2.32 4.252 2.32zm.133-8.836c-.776 0-1.249-.684-1.249-2.128 0-1.311.435-2.09 1.249-2.09s1.229.817 1.229 2.09c-.005 1.483-.515 2.129-1.234 2.129zm1.892 6.118c0 .57-.663.931-1.684.931-.965.019-1.609-.3-1.609-.912a1.245 1.245 0 01.795-1.026c1.944.115 2.493.438 2.493 1.008zm3.443-2.432c2.043-.019 3.065-.019 3.065-.019s-.076-2.128-.038-3.553c.057-2.28.757-3.154 2.876-3.306.038-1.881.095-2.889.095-2.889a3.575 3.575 0 00-3.557 2.034c0-.95.037-1.692.037-1.692-1.721.038-2.5.019-2.5.019.055 4.6.017 9.407.017 9.407zm11.404.285a4.218 4.218 0 004.39-3.458c-1.968-.057-3.141-.095-3.141-.095-.151 1.045-.606 1.539-1.287 1.539-.87 0-1.343-.7-1.457-2.223 3.8-.076 5.866-.095 5.866-.095.152-3.4-1-5.758-4.5-5.777-2.9 0-4.5 2.053-4.5 4.979-.005 2.965 1.204 5.13 4.629 5.13zm-.076-8.151c.852 0 1.306.836 1.325 2.318-1.116.057-2.006.076-2.744.095.095-1.595.549-2.412 1.419-2.412zm14.437 8.227c-.038-7.391.019-13.434.019-13.434-2.5.038-3.122.019-3.122.019.076 1.957.114 3.42.133 4.485a2.834 2.834 0 00-2.347-1.236c-2.4 0-3.671 2-3.671 4.979 0 3.325 1.476 5.016 3.8 5.016a2.918 2.918 0 002.649-1.444c-.019.95-.057 1.577-.057 1.577 1.139.001 2.601.039 2.601.039zm-4.371-2.109c-.87 0-1.419-.969-1.419-3.04 0-1.881.511-3 1.4-3 .946 0 1.438 1.121 1.457 3.04 0 2.184-.605 3.001-1.438 3.001zm6.035 1.71c1.741-.038 3.028-.019 3.028-.019-.076-5.168-.057-9.5-.057-9.5-1.911.038-3.027.019-3.027.019.075 6.974.056 9.501.056 9.501zm1.5-10.413a1.593 1.593 0 001.836-1.653 1.573 1.573 0 00-1.836-1.6c-1.249 0-1.892.608-1.892 1.6-.005 1.089.62 1.654 1.887 1.654zm7.469 10.736a4.217 4.217 0 004.39-3.458c-1.968-.057-3.141-.095-3.141-.095-.151 1.045-.6 1.539-1.287 1.539-.87 0-1.343-.7-1.457-2.223 3.8-.076 5.866-.095 5.866-.095.152-3.4-1-5.758-4.5-5.777-2.895 0-4.5 2.053-4.5 4.979-.007 2.965 1.201 5.13 4.629 5.13zm-.075-8.151c.851 0 1.305.836 1.324 2.318-1.116.057-2.006.076-2.744.095.095-1.595.549-2.412 1.42-2.412zm10.955 8.208s2.1-.019 3.046-.019c0 0 0-5.529-.056-6.9-.057-2.033-.984-3.212-2.782-3.231a3.311 3.311 0 00-3.1 1.977c-.019-.76.019-1.521.019-1.521-1.155.057-2.4.019-2.4.019.038 5.4-.018 9.026-.018 9.026 1.4-.038 3.046 0 3.046 0s-.019-3.553.019-4.94c.038-1.1.511-1.938 1.343-1.938.682 0 .909.532.909 1.406.031 2.911-.026 6.122-.026 6.122zm10.728-.665s-.1-.988-.208-2.584a4.431 4.431 0 01-1.1.171 1.155 1.155 0 01-1.305-1.33c-.038-1.026-.038-2.071-.038-3.1.813 0 1.57 0 2.46.019 0 0-.038-.456.019-2.433h-2.479c.019-1.463.057-2.489.057-2.489s-1.155.019-2.971 0c0 0-.019.988-.038 2.451-.4 0-.833 0-1.268-.019 0 0 .038.589.019 2.471h1.23c0 1.178 0 2.432.019 3.705.038 2.508 1.306 3.5 3.236 3.5a9.551 9.551 0 002.367-.361zm5.014.7c2.251 0 3.973-.931 3.973-3.04 0-1.444-.681-2.318-3.217-2.945-1.589-.4-2-.76-2-1.368a.886.886 0 011.04-.836c.814 0 1.249.646 1.268 1.634 1.76-.057 2.782-.038 2.782-.038-.038-2.166-1.4-3.725-4.106-3.725-2.479 0-3.9 1.217-3.9 2.908 0 1.672.946 2.641 3.065 3.135 1.8.418 2.138.76 2.138 1.311a.9.9 0 01-1.04.874c-.909 0-1.382-.513-1.4-1.634l-2.876-.057c.015 2.589 1.661 3.789 4.273 3.789z" fill="#fff" fill-rule="evenodd"/></svg><svg width="201.41" height="47.94" viewBox="-1 -1 201.41 47.94" y="54.15" xmlns="http://www.w3.org/2000/svg"><path data-name="Snack up." d="M12.686 36.5c7.292 0 12.522-3.05 12.522-10.35 0-4.9-2.011-7.95-10.259-10.75-4.476-1.55-6.085-3.1-6.085-5.4s1.056-3.8 3.219-3.8c2.816 0 4.476 2.2 4.124 6.6 4.777.05 8.3.3 8.3.3.2-8.35-4.023-13.1-12.422-13.1C4.843 0 .166 3.4.166 9.9c0 5.7 2.867 8.55 9.4 10.95 5.431 1.95 6.739 3.45 6.739 5.7 0 2.6-1.257 3.65-3.369 3.65-2.917 0-4.576-2.35-4.375-6.95-5.331.1-8.549.05-8.549.05-.25 8.5 4.024 13.2 12.674 13.2zm28.866.05s5.582-.05 8.1-.05c0 0 0-14.55-.151-18.15-.151-5.35-2.615-8.45-7.393-8.5a8.807 8.807 0 00-8.248 5.2c-.05-2 .05-4 .05-4-3.068.15-6.387.05-6.387.05.1 14.2-.05 23.75-.05 23.75 3.721-.1 8.1 0 8.1 0s-.05-9.35.05-13c.1-2.9 1.358-5.1 3.571-5.1 1.81 0 2.414 1.4 2.414 3.7.095 7.65-.056 16.1-.056 16.1zm18.506-.2c3.219 0 6.337-1.15 7.845-3.95-.05 2.4-.2 3.95-.2 3.95 4.124-.05 6.538-.05 6.538-.05s.151-7.6-.051-15.9c-.15-6.8-3.319-10.6-10.862-10.6-6.538 0-10.511 3.8-10.712 9.35 4.577.15 7.493.2 7.493.2.151-2.55 1.107-4.1 3.068-4.1 1.861 0 2.716 1.35 2.867 4.15.05.5.05 1.15.05 1.15-9.857-.35-14.433 3.05-14.433 8.65-.001 4.4 3.368 7.15 8.397 7.15zm6.387-11c0 4.55-1.861 5.85-3.872 5.85a2.575 2.575 0 01-2.867-2.8c0-2.3 1.76-4.15 6.739-4v.95zM88.823 36.4c6.035 0 10.863-3.05 11.416-11.1-6.085 0-8.549-.2-8.549-.2-.05 3.8-1.408 5.3-3.068 5.25-2.363 0-3.57-2.4-3.57-7.2 0-4.95 1.207-7.7 3.52-7.7 1.961 0 3.068 2.05 3.168 5.5 0 0 4.677-.2 8.348-.1-.05-6.5-4.274-11.1-11.416-11.1-7.845 0-11.868 5.3-11.868 13.25 0 8.35 3.771 13.4 12.019 13.4zm28.413.25s2.414-.2 8.6-.3c0 0-2.615-5.8-6.94-15.8 1.207-2.05 3.319-5.55 6.638-10.55 0 0-3.52-.05-9.253-.35 0 0-1.861 4.5-5.683 12.15 0-4.95.05-11.3.1-20.15 0 0-2.565.1-8.1-.05 0 0 .151 9.45 0 33.2 0 0 3.068-.1 8.1.05 0 0-.051-1.45-.051-4.75.554-.9 1.408-2.2 2.515-3.85.906 2.1 2.264 5.55 4.074 10.4zm29.72-.85a7.855 7.855 0 006.89-3.8c-.05 2.4-.1 4.2-.1 4.2 4.526-.05 6.688.05 6.688.05-.2-15.5-.05-26.4-.05-26.4-6.035 0-8.1-.1-8.1-.1s.352 7.3.151 14.3c-.1 3.55-1.509 5.2-3.118 5.2-2.213 0-3.168-2.1-3.168-10.1a77.473 77.473 0 01.4-8.05c-5.632-.25-7.594-.55-7.594-.55a82.425 82.425 0 00-.653 10.5c.005 10.6 2.519 14.75 8.654 14.75zm16.9 10.15s4.677-.2 8.4-.05c0 0-.3-3.65-.5-12.8a7.524 7.524 0 006.487 3.1c5.733 0 9.756-4.35 9.756-13.05 0-7.45-3.47-13.35-9.706-13.35a8.41 8.41 0 00-7.543 4.2c0-.95.05-1.75.1-3.25 0 0-4.677.1-6.99.05-.007 0 .144 17.8-.007 35.15zm11.969-14.85c-2.665 0-3.872-2.5-3.872-8 0-5.2 1.307-8 3.822-8 2.414 0 3.721 2.85 3.721 8-.003 5.65-1.26 8-3.674 8zm18.858 4.95c2.866 0 4.727-1.6 4.727-4.9a4.727 4.727 0 00-9.454.05c-.003 2.75 1.606 4.85 4.724 4.85z" fill="#fff" fill-rule="evenodd"/></svg><svg width="160.16" height="48.22" viewBox="-1 -1 160.16 48.22" y="102.09" xmlns="http://www.w3.org/2000/svg"><path data-name="Play on." d="M-.009 34.412c4.124-.1 8.348-.05 8.348-.05l-.2-8.1c9.153.35 15.741-3.7 15.741-12.95 0-8.8-5.281-13.3-16.546-13.3a55.886 55.886 0 00-7.292.5c.1 21-.051 33.9-.051 33.9zm8-27.75a11.878 11.878 0 011.308-.05c4.677 0 6.437 2.45 6.437 6.7 0 5.4-2.766 7.1-7.694 6.8-.105-6.65-.055-9.3-.055-13.45zm26.15 27.6s-.151-7.2.1-33.85c0 0-2.564 0-8.1-.1 0 0 .151 9.75-.05 33.85 0 0 3.017 0 8.046.1zm10.962 1.15c3.219 0 6.337-1.15 7.845-3.95-.05 2.4-.2 3.95-.2 3.95 4.124-.05 6.538-.05 6.538-.05s.151-7.6-.05-15.9c-.151-6.8-3.32-10.6-10.863-10.6-6.538 0-10.511 3.8-10.712 9.35 4.577.15 7.493.2 7.493.2.151-2.55 1.107-4.1 3.068-4.1 1.861 0 2.716 1.35 2.867 4.15.05.5.05 1.15.05 1.15-9.857-.35-14.433 3.05-14.433 8.65-.005 4.4 3.364 7.15 8.393 7.15zm6.387-11c0 4.55-1.861 5.85-3.872 5.85a2.575 2.575 0 01-2.867-2.8c0-2.3 1.76-4.15 6.739-4v.95zm23.686 21.8s1.961-7.8 9.957-37.2c0 0-3.017-.05-8.4-.4 0 0-.956 6.25-3.571 18.75 0 0-1.609-6.55-3.671-17.3 0 0-3.017.35-8.65.45 0 0 3.269 9.4 8.4 26.25 0 0-.553 2.6-2.163 8.3-.003 0 1.908.2 8.094 1.15zm34.1-10.9c7.091 0 12.221-4 12.221-13.35.05-7.95-4.325-13.1-12.17-13.1-7.493 0-12.12 5-12.12 12.85-.009 8.65 4.165 13.6 12.06 13.6zm.1-5.4c-2.615 0-3.772-2.35-3.772-8.2 0-4.95 1.408-7.45 3.822-7.45 2.565 0 3.722 2.75 3.722 7.65-.008 5.75-1.467 8-3.78 8zm29.017 5.7s5.582-.05 8.1-.05c0 0 0-14.55-.15-18.15-.151-5.35-2.616-8.45-7.393-8.5a8.808 8.808 0 00-8.248 5.2c-.05-2 .051-4 .051-4-3.068.15-6.387.05-6.387.05.1 14.2-.05 23.75-.05 23.75 3.721-.1 8.1 0 8.1 0s-.05-9.35.051-13c.1-2.9 1.357-5.1 3.57-5.1 1.811 0 2.414 1.4 2.414 3.7.085 7.65-.066 16.1-.066 16.1zm15.036-.5c2.866 0 4.727-1.6 4.727-4.9a4.728 4.728 0 00-9.455.05c-.008 2.75 1.602 4.85 4.72 4.85z" fill="#fff" fill-rule="evenodd"/></svg></svg>