<svg width="144" height="69" xmlns="http://www.w3.org/2000/svg" xmlns:xlink="http://www.w3.org/1999/xlink"><svg width="71.91" height="21.5" viewBox="-1 -1 71.91 21.5" y="46.88" xmlns="http://www.w3.org/2000/svg"><path data-name="Rounded Rectangle 1" d="M4.006 1.014h61.9a3 3 0 013 3v11.472a3 3 0 01-3 3h-61.9a3 3 0 01-3-3V4.014a3 3 0 013-3z" fill="none" stroke="#fff" stroke-linecap="round" stroke-width="2"/></svg><svg width="51.81" height="9.16" viewBox="-1 -1 51.81 9.16" x="73.78" y="28.32" xmlns="http://www.w3.org/2000/svg"><path data-name="Learn More" d="M.049 6.915s1.851 0 3.7.039c0 0-.01-.515.01-1.369 0 0-.74.01-2.143-.029-.059-4.009-.039-5.3-.039-5.3-1.091.019-1.588 0-1.588 0 .06 3.612.06 6.659.06 6.659zm4.206-.01c2.065.019 3.847.087 3.847.087-.009-.874.01-1.339.01-1.339-1.442-.019-2.289-.058-2.289-.058-.02-.456-.029-.893-.039-1.291a51.36 51.36 0 011.929 0c-.02-.815-.01-1.271-.01-1.271-1.072.029-1.685.019-1.939.019-.019-.932-.009-1.495-.009-1.495 1.334-.029 2.318-.039 2.318-.039C8.054.674 8.054.159 8.054.159c-2.5.029-3.877.049-3.877.049.068 3.922.078 6.698.078 6.698zm4.223-.126c.867-.01 1.6.019 1.6.019.048-.349.1-.689.156-1.029.72 0 1.256.01 1.607.019.146.864.234 1.33.234 1.33.847-.019 1.675-.01 1.675-.01-.808-3.649-1.5-6.979-1.5-6.979s-1.091-.01-2.348.039c-.83 3.952-1.424 6.611-1.424 6.611zm2.553-5.522c.244 1.33.439 2.436.595 3.32h-1.2c.263-1.564.505-2.796.605-3.32zm6.332 5.9c.984-.107 1.646-.175 1.646-.175a146.77 146.77 0 01-1.256-2.66 1.974 1.974 0 001.13-1.931c0-1.5-1.023-2.329-2.894-2.329a9.049 9.049 0 00-1.792.2c.029 4.086-.01 6.571-.01 6.571.789-.019 1.588-.01 1.588-.01l-.044-2.117a5.586 5.586 0 00.585-.029 81.965 81.965 0 011.046 2.481zm-1.632-3.581s-.019-.893-.029-2.2a2.751 2.751 0 01.467-.039 1 1 0 011.121 1.126c.004.843-.552 1.172-1.559 1.113zm3.793 3.2c.828 0 1.52.019 1.52.019a135.315 135.315 0 01-.117-3.766l1.783 4.086c.915-.049 1.529-.107 1.529-.107-.1-4.319-.127-6.969-.127-6.969-.828 0-1.5-.019-1.5-.019.117 2.019.166 3.63.185 4.5C21.755 2.181 21.034.346 21.034.346c-.848.029-1.539.068-1.539.068.062 3.949.036 6.365.036 6.365zm7.832.01c.75.019 1.626.039 1.626.039a230.809 230.809 0 01-.009-5.134c.526 2.407.857 4.076.857 4.076.818.029 1.607.019 1.607.019.292-1.582.663-3.3.887-4.3.1 3.223.058 5.639.058 5.639.8-.019 1.627-.049 1.627-.049a263.025 263.025 0 01-.292-6.988L31.476.01a114.668 114.668 0 01-.847 4.28c-.478-2.145-.78-3.95-.78-3.95-1.159.039-2.25.029-2.25.029-.093 3.722-.239 6.42-.239 6.42zm9.857.33c1.608 0 2.621-1 2.631-3.523.009-2.155-.8-3.543-2.631-3.543s-2.659 1.466-2.64 3.553c.014 2.283.91 3.516 2.644 3.516zm0-1.242c-.613 0-.935-.641-.935-2.31 0-1.563.322-2.252.926-2.252s.925.65.925 2.252c.002 1.779-.356 2.313-.912 2.313zm6.507 1.281a300.39 300.39 0 011.647-.175 142.092 142.092 0 01-1.257-2.66 1.974 1.974 0 001.13-1.931c0-1.5-1.023-2.329-2.893-2.329a9.066 9.066 0 00-1.793.2c.029 4.086-.01 6.571-.01 6.571.79-.019 1.588-.01 1.588-.01l-.035-2.115a5.586 5.586 0 00.585-.029 87.21 87.21 0 011.042 2.481zm-1.627-3.581s-.019-.893-.029-2.2a2.762 2.762 0 01.468-.039 1 1 0 011.12 1.126c.004.845-.551 1.174-1.555 1.115zm3.842 3.329c2.065.019 3.848.087 3.848.087-.01-.874.01-1.339.01-1.339a77.604 77.604 0 01-2.29-.058c-.019-.456-.029-.893-.039-1.291 1.189-.019 1.929 0 1.929 0-.019-.815-.01-1.271-.01-1.271-1.071.029-1.685.019-1.938.019-.02-.932-.01-1.495-.01-1.495 1.335-.029 2.319-.039 2.319-.039-.02-.844-.02-1.359-.02-1.359-2.5.029-3.877.049-3.877.049.074 3.924.082 6.7.082 6.7z" fill="#fff" fill-rule="evenodd"/></svg><svg width="143.31" height="15.41" viewBox="-1 -1 143.31 15.41" xmlns="http://www.w3.org/2000/svg"><path data-name="100% Whole Grains copy 6" d="M2.629 13.001s1.177.036 3.041-.018c0 0-.127-6.012-.127-12.348 0 0-.652-.072-1.81-.216 0 0-1.43.81-3.747 1.98 0 0 .344.936.851 2.592 0 0 .688-.414 1.774-.954.018 1.094.054 4.032.018 8.964zm9.521.414c3.168 0 4.87-2.412 4.87-6.75 0-4.23-1.7-6.372-4.888-6.372-3.005 0-4.852 2.16-4.852 6.462.001 4.32 1.884 6.66 4.87 6.66zm.018-2.448c-1.159 0-1.738-1.3-1.738-4.266 0-2.79.561-4.014 1.72-4.014 1.086 0 1.684 1.332 1.684 3.942.001 3.312-.651 4.338-1.665 4.338zm10.518 2.448c3.169 0 4.87-2.412 4.87-6.75 0-4.23-1.7-6.372-4.888-6.372-3 0-4.851 2.16-4.851 6.462.001 4.32 1.883 6.66 4.87 6.66zm.019-2.448c-1.159 0-1.738-1.3-1.738-4.266 0-2.79.561-4.014 1.719-4.014 1.087 0 1.684 1.332 1.684 3.942.001 3.312-.651 4.338-1.664 4.338zm8.291-4.194c1.666 0 2.933-.864 2.933-3.348 0-2.2-.978-3.438-2.9-3.438-1.883 0-2.933 1.3-2.933 3.2.004 2.128.819 3.586 2.901 3.586zm.018-1.368c-.561 0-.851-.594-.851-2.052 0-1.26.272-1.944.851-1.944s.851.576.851 1.962c.001 1.566-.307 2.034-.85 2.034zm-.2 7.812L38.454.509s-.543-.018-1.376-.126c0 0-2.716 4.716-7.586 12.672a11.993 11.993 0 011.324.162zm6.246.126c1.7 0 2.969-1.008 2.969-3.42 0-2.016-.942-3.4-2.933-3.4-1.919 0-2.933 1.44-2.933 3.33.002 2.086.907 3.49 2.899 3.49zm.036-1.386c-.579 0-.851-.576-.851-2.088 0-1.278.29-1.908.833-1.908.6 0 .851.594.851 2.016.002 1.454-.288 1.98-.831 1.98zm14.972 1.458s1.412 0 4.236-.144c0 0 .29-3.672 1.285-13.014 0 0-.905 0-2.951-.072 0 0-.072 2.268-.669 10.566-.272-1.674-.779-4.788-1.485-9.4 0 0-.869-.036-3.15-.036 0 0-.253 1.674-1.466 8.8a489.333 489.333 0 01-.6-9.45s-1.43.036-2.987.054c.163 1.836.634 6.066 1.177 11.772 0 0 1.032.018 4.073.162 0 0 .4-2.718 1.358-8.658.239 1.77.62 4.866 1.181 9.42zm6.3-.774c1.792-.036 2.933-.018 2.933-.018s-.036-2.412 0-4.572c.018-1.08.452-1.89 1.267-1.89.652 0 .869.468.905 1.35.055 2.754-.018 5.724-.018 5.724 1.756 0 2.879.036 2.879.036s.072-3.528-.018-6.57c-.073-1.872-.924-3.042-2.553-3.042a2.855 2.855 0 00-2.571 1.44c-.018-2.43.036-4.374.036-4.374-1.882.018-2.86.018-2.86.018.075 6.678.002 11.898.002 11.898zm13.216.54c2.553 0 4.4-1.44 4.4-4.806.018-2.862-1.557-4.716-4.381-4.716-2.7 0-4.363 1.8-4.363 4.626.001 3.114 1.504 4.896 4.346 4.896zm.036-1.944c-.941 0-1.358-.846-1.358-2.952 0-1.782.507-2.682 1.376-2.682.924 0 1.34.99 1.34 2.754.002 2.074-.523 2.88-1.356 2.88zm8.346 1.566s-.054-2.592.036-12.186c0 0-.923 0-2.914-.036 0 0 .054 3.51-.018 12.186.002 0 1.088 0 2.898.036zm5.524.428a4.028 4.028 0 004.2-3.276c-1.883-.054-3.006-.09-3.006-.09-.144.99-.579 1.458-1.231 1.458-.832 0-1.285-.666-1.394-2.106 3.639-.072 5.613-.09 5.613-.09.144-3.222-.96-5.454-4.309-5.472-2.77 0-4.309 1.944-4.309 4.716-.004 2.812 1.159 4.86 4.436 4.86zm-.073-7.722c.815 0 1.249.792 1.267 2.2-1.068.054-1.919.072-2.625.09.091-1.512.525-2.286 1.358-2.286zm13.886 7.812c3 0 4.942-1.782 4.761-6.93-2.9.018-5.177-.018-5.177-.018.036 1.458.018 2.232.018 2.232l2.19-.054c-.108 1.692-.67 2.448-1.611 2.448-1.358 0-2.01-1.224-2.01-4.338 0-2.754.58-4.158 1.756-4.158.924 0 1.431.864 1.539 2.646 1.177-.054 3.024-.09 3.024-.09-.109-3.006-1.684-4.914-4.508-4.914-3.241 0-4.906 2.394-4.906 6.516 0 4.738 1.937 6.664 4.924 6.664zm5.684-.36c1.956-.018 2.933-.018 2.933-.018s-.072-2.016-.036-3.366c.054-2.16.724-2.988 2.752-3.132.036-1.782.09-2.736.09-2.736a3.427 3.427 0 00-3.4 1.926c0-.9.036-1.6.036-1.6-1.647.036-2.39.018-2.39.018.052 4.358.015 8.912.015 8.912zm9.161.252a3.051 3.051 0 002.824-1.422c-.018.864-.072 1.422-.072 1.422 1.484-.018 2.353-.018 2.353-.018s.054-2.736-.018-5.724c-.054-2.448-1.2-3.816-3.91-3.816-2.354 0-3.784 1.368-3.857 3.366 1.648.054 2.7.072 2.7.072.054-.918.4-1.476 1.1-1.476.67 0 .978.486 1.032 1.494.018.18.018.414.018.414-3.548-.126-5.195 1.1-5.195 3.114.002 1.592 1.214 2.578 3.027 2.578zm2.3-3.96c0 1.638-.67 2.106-1.394 2.106a.927.927 0 01-1.032-1.008c0-.828.634-1.494 2.426-1.44v.342zm4.092 3.672c1.665-.036 2.9-.018 2.9-.018-.072-4.9-.054-9-.054-9-1.829.036-2.9.018-2.9.018.071 6.606.053 9.006.053 9.006zm1.43-9.864a1.517 1.517 0 001.756-1.566 1.5 1.5 0 00-1.756-1.512c-1.195 0-1.811.576-1.811 1.512-.001 1.03.597 1.57 1.81 1.57zm7.8 10.224s2.009-.018 2.914-.018c0 0 0-5.238-.054-6.534-.054-1.926-.942-3.042-2.661-3.06A3.169 3.169 0 00127 5.545c-.018-.72.018-1.44.018-1.44-1.105.054-2.3.018-2.3.018.036 5.112-.019 8.55-.019 8.55 1.34-.036 2.915 0 2.915 0s-.018-3.366.018-4.68c.036-1.044.489-1.836 1.286-1.836.651 0 .869.5.869 1.332.039 2.758-.015 5.8-.015 5.8zm7.748.036c2.154 0 3.8-.882 3.8-2.88 0-1.368-.652-2.2-3.078-2.79-1.521-.378-1.919-.72-1.919-1.3a.846.846 0 011-.792 1.31 1.31 0 011.213 1.548c1.683-.054 2.661-.036 2.661-.036-.036-2.052-1.34-3.528-3.929-3.528-2.371 0-3.729 1.152-3.729 2.754 0 1.584.905 2.5 2.933 2.97 1.72.4 2.046.72 2.046 1.242a.858.858 0 01-1 .828c-.869 0-1.322-.486-1.34-1.548l-2.751-.054c.025 2.456 1.597 3.59 4.095 3.59z" fill="#fff" fill-rule="evenodd"/></svg><svg width="138.06" height="12.91" viewBox="-1 -1 138.06 12.91" y="15.41" xmlns="http://www.w3.org/2000/svg"><path data-name="&amp; Other Delicious Ingredients" d="M2.616 8.268a3.346 3.346 0 002.344-.825l.833.616c.559-.792.844-1.133.844-1.133l-.865-.6a6.87 6.87 0 00.57-1.936s-.6-.132-1.479-.4a6.743 6.743 0 01-.34 1.386 15.617 15.617 0 01-1.2-1.067c.855-.506 1.753-1.078 1.753-2.332A1.966 1.966 0 002.929.052 2.076 2.076 0 00.585 2.186 3.312 3.312 0 001.308 4.1 2.2 2.2 0 00.015 6.08c-.007 1.363 1.1 2.188 2.601 2.188zm.241-1.343a.942.942 0 01-1.008-1 1.149 1.149 0 01.338-.814 19.759 19.759 0 001.61 1.43 1.4 1.4 0 01-.94.384zm-.67-4.685a.749.749 0 01.668-.88.627.627 0 01.614.737 1.5 1.5 0 01-.9 1.3 2.162 2.162 0 01-.382-1.157zm10.287 5.885c1.808 0 2.947-1.133 2.958-3.993.011-2.442-.9-4.015-2.958-4.015S9.483 1.778 9.505 4.143c.012 2.582 1.019 3.982 2.969 3.982zm0-1.408c-.69 0-1.052-.726-1.052-2.618 0-1.771.362-2.552 1.041-2.552s1.041.737 1.041 2.552c0 2.013-.405 2.618-1.03 2.618zm7.351 1.034s-.055-.572-.121-1.5a2.565 2.565 0 01-.635.1.669.669 0 01-.756-.77c-.022-.594-.022-1.2-.022-1.793.471 0 .909 0 1.424.011 0 0-.022-.264.011-1.408h-1.439c.011-.847.033-1.441.033-1.441s-.669.011-1.72 0c0 0-.011.572-.022 1.419-.23 0-.482 0-.734-.011 0 0 .022.341.011 1.43h.712c0 .682 0 1.408.011 2.145a1.745 1.745 0 001.873 2.024 5.532 5.532 0 001.374-.206zm.645-.011c1.085-.022 1.775-.011 1.775-.011s-.022-1.474 0-2.794a.966.966 0 01.767-1.155c.394 0 .526.286.548.825.033 1.683-.011 3.5-.011 3.5 1.062 0 1.742.022 1.742.022s.044-2.156-.011-4.015c-.044-1.144-.559-1.859-1.545-1.859a1.725 1.725 0 00-1.556.88c-.01-1.485.022-2.673.022-2.673-1.139.011-1.731.011-1.731.011a329.4 329.4 0 010 7.269zm8.162.363a2.442 2.442 0 002.541-2c-1.139-.033-1.818-.055-1.818-.055a.823.823 0 01-.745.891c-.5 0-.778-.407-.844-1.287 2.2-.044 3.4-.055 3.4-.055.088-1.969-.58-3.333-2.607-3.344-1.676 0-2.607 1.188-2.607 2.882-.004 1.714.697 2.968 2.68 2.968zm-.045-4.719c.493 0 .756.484.767 1.342-.647.033-1.162.044-1.589.055.056-.924.322-1.397.822-1.397zm3.286 4.554c1.183-.011 1.774-.011 1.774-.011s-.043-1.232-.021-2.057c.032-1.32.438-1.826 1.665-1.914a51.43 51.43 0 01.055-1.672 2.071 2.071 0 00-2.06 1.177c0-.55.022-.979.022-.979-1 .022-1.446.011-1.446.011.034 2.662.012 5.445.012 5.445zm8.391-1.3s-.055-2.277-.066-4.983c.12-.011.23-.022.339-.022 1.041 0 1.523.836 1.523 2.508 0 2.035-.613 2.508-1.544 2.508a1.924 1.924 0 01-.251-.009zm-1.819 1.32a12.694 12.694 0 001.632.11c2.575 0 3.889-1.133 3.889-3.872 0-2.618-1.172-4-3.8-4a11.29 11.29 0 00-1.72.154s.033 3.287 0 7.61zm8.8.143a2.442 2.442 0 002.542-2c-1.139-.033-1.819-.055-1.819-.055a.822.822 0 01-.745.891c-.5 0-.777-.407-.843-1.287 2.2-.044 3.4-.055 3.4-.055.088-1.969-.581-3.333-2.607-3.344-1.676 0-2.608 1.188-2.608 2.882-.007 1.716.694 2.97 2.677 2.97zm-.043-4.719c.493 0 .755.484.766 1.342-.646.033-1.161.044-1.588.055.052-.922.315-1.395.819-1.395zm5.071 4.455s-.033-1.584.022-7.448c0 0-.559 0-1.764-.022 0 0 .033 2.145-.011 7.448-.003.002.655.002 1.75.024zm.986.077c1.008-.022 1.753-.011 1.753-.011-.044-2.992-.033-5.5-.033-5.5-1.107.022-1.753.011-1.753.011.041 4.039.03 5.502.03 5.502zm.865-6.028A.922.922 0 0055.187.93a.911.911 0 00-1.063-.924.951.951 0 10-.003 1.882zm4.262 6.216a2.312 2.312 0 002.486-2.442c-1.325 0-1.862-.044-1.862-.044-.011.836-.307 1.166-.668 1.155-.515 0-.778-.528-.778-1.584 0-1.089.263-1.694.767-1.694.427 0 .668.451.69 1.21 0 0 1.019-.044 1.819-.022a2.32 2.32 0 00-2.487-2.442c-1.709 0-2.586 1.166-2.586 2.915-.003 1.838.82 2.949 2.62 2.949zm3.2-.187c1.008-.022 1.753-.011 1.753-.011-.044-2.992-.033-5.5-.033-5.5-1.107.022-1.753.011-1.753.011.039 4.038.028 5.501.028 5.501zm.865-6.028A.922.922 0 0063.514.93a.911.911 0 00-1.063-.924.951.951 0 10-.005 1.882zm4.273 6.183c1.544 0 2.662-.88 2.662-2.937a2.654 2.654 0 10-5.292-.055c-.007 1.903.905 2.992 2.625 2.992zm.022-1.188c-.57 0-.822-.517-.822-1.8 0-1.089.307-1.639.833-1.639.558 0 .81.605.81 1.683-.005 1.261-.323 1.756-.826 1.756zm5.192 1.089a1.708 1.708 0 001.5-.836c-.011.528-.022.924-.022.924.986-.011 1.457.011 1.457.011-.044-3.41-.011-5.808-.011-5.808-1.315 0-1.764-.022-1.764-.022s.077 1.606.033 3.146c-.022.781-.329 1.144-.679 1.144-.482 0-.69-.462-.69-2.222a17.144 17.144 0 01.087-1.771c-1.227-.055-1.654-.121-1.654-.121a18.213 18.213 0 00-.142 2.31c-.004 2.332.543 3.245 1.88 3.245zm6.057.187c1.3 0 2.3-.539 2.3-1.76 0-.836-.394-1.342-1.862-1.705-.921-.231-1.162-.44-1.162-.792a.514.514 0 01.6-.484.8.8 0 01.734.946c1.019-.033 1.61-.022 1.61-.022a2.109 2.109 0 00-2.377-2.156c-1.435 0-2.257.7-2.257 1.683s.548 1.529 1.775 1.815c1.041.242 1.238.44 1.238.759a.521.521 0 01-.6.506.785.785 0 01-.81-.946l-1.665-.033c.007 1.496.96 2.189 2.468 2.189zm5.543-.22c1.063-.011 1.808 0 1.808 0-.044-3.982-.055-7.657-.055-7.657-1.161.011-1.8.011-1.8.011.053 4.28.042 7.646.042 7.646zm5.828.2s1.211-.013 1.759-.013c0 0 0-3.2-.033-3.993-.033-1.177-.57-1.859-1.611-1.87a1.916 1.916 0 00-1.8 1.144c-.011-.44.011-.88.011-.88-.669.033-1.392.011-1.392.011.022 3.124-.011 5.225-.011 5.225.811-.022 1.764 0 1.764 0s-.011-2.057.011-2.86a.965.965 0 01.778-1.122c.394 0 .526.308.526.814a124.5 124.5 0 01-.007 3.542zm4.732 2.783c1.446 0 2.848-.616 2.848-1.9 0-.946-.657-1.463-2.311-1.617-.855-.077-1.041-.2-1.041-.363a.288.288 0 01.109-.22 4.507 4.507 0 00.559.033 2.171 2.171 0 002.366-2.321 2.222 2.222 0 00-.931-1.947A30.72 30.72 0 0196.738.87c-1.063-.352-1.7-.605-1.7-.605-.175.924-.318 1.584-.394 1.947a3.289 3.289 0 00-.472-.033 2.241 2.241 0 00-2.443 2.332 2.116 2.116 0 001.107 2.057 1.136 1.136 0 00-.789.968.994.994 0 00.723.88 1.263 1.263 0 00-1.139 1.166c-.003.875.983 1.337 2.462 1.337zm.076-5.115c-.449 0-.723-.4-.723-1.232 0-.759.252-1.21.723-1.21s.713.473.713 1.21c0 .851-.3 1.23-.718 1.23zm1.1 3.542c0 .33-.383.539-.975.539-.559.011-.931-.176-.931-.528a.72.72 0 01.46-.594c1.119.06 1.437.251 1.437.581zm1.993-1.408c1.183-.011 1.775-.011 1.775-.011s-.044-1.232-.022-2.057c.033-1.32.438-1.826 1.665-1.914a51.43 51.43 0 01.055-1.672 2.071 2.071 0 00-2.06 1.177c0-.55.022-.979.022-.979-1 .022-1.446.011-1.446.011.024 2.66.002 5.443.002 5.443zm6.606.165a2.441 2.441 0 002.541-2c-1.139-.033-1.818-.055-1.818-.055a.823.823 0 01-.745.891c-.5 0-.778-.407-.844-1.287 2.2-.044 3.4-.055 3.4-.055.088-1.969-.58-3.333-2.607-3.344-1.676 0-2.607 1.188-2.607 2.882-.013 1.712.688 2.966 2.671 2.966zm-.044-4.719c.493 0 .756.484.767 1.342-.647.033-1.162.044-1.589.055.046-.926.309-1.399.813-1.399zm8.358 4.763c-.022-4.279.011-7.778.011-7.778-1.446.022-1.808.011-1.808.011.044 1.133.066 1.98.077 2.6a1.641 1.641 0 00-1.358-.715c-1.392 0-2.126 1.155-2.126 2.882 0 1.925.855 2.9 2.2 2.9a1.689 1.689 0 001.534-.836c-.011.55-.033.913-.033.913.651-.001 1.494.021 1.494.021zm-2.54-1.224c-.5 0-.821-.561-.821-1.76 0-1.089.3-1.738.811-1.738.547 0 .832.649.843 1.76 0 1.266-.35 1.738-.833 1.738zm3.5.99c1.007-.022 1.752-.011 1.752-.011-.043-2.992-.032-5.5-.032-5.5-1.107.022-1.753.011-1.753.011.039 4.038.028 5.501.028 5.501zm.865-6.028a.922.922 0 001.063-.957.911.911 0 00-1.063-.924.951.951 0 10-.005 1.882zm4.327 6.216a2.442 2.442 0 002.542-2 585.54 585.54 0 01-1.819-.055.823.823 0 01-.745.891c-.5 0-.778-.407-.843-1.287 2.2-.044 3.4-.055 3.4-.055.087-1.969-.581-3.333-2.608-3.344-1.676 0-2.607 1.188-2.607 2.882-.009 1.714.692 2.968 2.675 2.968zm-.052-4.719c.493 0 .756.484.767 1.342-.646.033-1.161.044-1.588.055.057-.924.321-1.397.821-1.397zm6.343 4.752s1.219-.011 1.767-.011c0 0 0-3.2-.033-3.993-.033-1.177-.57-1.859-1.611-1.87a1.916 1.916 0 00-1.8 1.144c-.011-.44.011-.88.011-.88-.669.033-1.392.011-1.392.011.022 3.124-.011 5.225-.011 5.225.811-.022 1.764 0 1.764 0s-.011-2.057.011-2.86a.965.965 0 01.778-1.122c.394 0 .526.308.526.814a124.5 124.5 0 01-.007 3.542zm6.211-.385s-.055-.572-.121-1.5a2.565 2.565 0 01-.635.1.669.669 0 01-.756-.77c-.022-.594-.022-1.2-.022-1.793.471 0 .909 0 1.424.011 0 0-.022-.264.011-1.408h-1.435c.011-.847.033-1.441.033-1.441s-.668.011-1.72 0c0 0-.011.572-.022 1.419-.23 0-.482 0-.734-.011 0 0 .022.341.011 1.43h.712c0 .682 0 1.408.011 2.145a1.745 1.745 0 001.873 2.024 5.532 5.532 0 001.373-.206zm2.9.407c1.3 0 2.3-.539 2.3-1.76 0-.836-.394-1.342-1.862-1.705-.921-.231-1.162-.44-1.162-.792a.514.514 0 01.6-.484.8.8 0 01.734.946c1.019-.033 1.61-.022 1.61-.022a2.109 2.109 0 00-2.377-2.156c-1.435 0-2.257.7-2.257 1.683s.548 1.529 1.775 1.815c1.041.242 1.238.44 1.238.759a.521.521 0 01-.6.506.785.785 0 01-.81-.946l-1.666-.033c.017 1.496.971 2.189 2.482 2.189z" fill="#fff" fill-rule="evenodd"/></svg><svg width="73.78" height="18.56" viewBox="-1 -1 73.78 18.56" y="28.32" xmlns="http://www.w3.org/2000/svg"><path data-name="Snack up." d="M4.556 13.146c2.625 0 4.508-1.1 4.508-3.726 0-1.764-.724-2.862-3.693-3.87-1.611-.558-2.19-1.116-2.19-1.944A1.159 1.159 0 014.34 2.238c1.014 0 1.611.792 1.485 2.376 1.72.018 2.987.108 2.987.108C8.883 1.716 7.362.006 4.339.006 1.732.006.048 1.23.048 3.57c0 2.052 1.032 3.078 3.385 3.942 1.955.7 2.426 1.242 2.426 2.052a1.114 1.114 0 01-1.213 1.314c-1.05 0-1.647-.846-1.575-2.5-1.919.036-3.078.018-3.078.018-.089 3.058 1.45 4.75 4.563 4.75zm10.392.018s2.01-.018 2.915-.018c0 0 0-5.238-.055-6.534-.054-1.926-.941-3.042-2.661-3.06a3.17 3.17 0 00-2.969 1.872c-.018-.72.018-1.44.018-1.44-1.1.054-2.3.018-2.3.018.036 5.112-.018 8.55-.018 8.55 1.34-.036 2.915 0 2.915 0s-.018-3.366.018-4.68c.036-1.044.489-1.836 1.285-1.836.652 0 .869.5.869 1.332.037 2.754-.017 5.796-.017 5.796zm6.662-.072a3.05 3.05 0 002.824-1.422c-.018.864-.072 1.422-.072 1.422 1.485-.018 2.353-.018 2.353-.018s.055-2.736-.018-5.724c-.054-2.448-1.194-3.816-3.91-3.816-2.353 0-3.784 1.368-3.856 3.366 1.647.054 2.7.072 2.7.072.055-.918.4-1.476 1.1-1.476.67 0 .977.486 1.032 1.494.018.18.018.414.018.414-3.549-.126-5.2 1.1-5.2 3.114.006 1.588 1.219 2.574 3.029 2.574zm2.3-3.96c0 1.638-.669 2.106-1.394 2.106a.927.927 0 01-1.031-1.008c0-.828.633-1.494 2.425-1.44v.342zm8.059 3.974c2.172 0 3.91-1.1 4.109-4-2.19 0-3.077-.072-3.077-.072-.018 1.368-.507 1.908-1.1 1.89-.851 0-1.285-.864-1.285-2.592 0-1.782.434-2.772 1.267-2.772.706 0 1.1.738 1.141 1.98 0 0 1.683-.072 3.005-.036a3.815 3.815 0 00-4.11-4c-2.824 0-4.272 1.908-4.272 4.77-.008 3.018 1.35 4.832 4.322 4.832zm10.228.09s.869-.072 3.1-.108c0 0-.941-2.088-2.5-5.688.434-.738 1.195-2 2.389-3.8 0 0-1.267-.018-3.331-.126 0 0-.669 1.62-2.045 4.374 0-1.782.018-4.068.036-7.254 0 0-.923.036-2.915-.018 0 0 .054 3.4 0 11.952 0 0 1.1-.036 2.915.018 0 0-.018-.522-.018-1.71.2-.324.507-.792.905-1.386.321.762.81 2.004 1.461 3.75zm10.7-.306a2.828 2.828 0 002.48-1.368c-.018.864-.036 1.512-.036 1.512a47.519 47.519 0 012.407.018c-.072-5.58-.018-9.5-.018-9.5-2.172 0-2.914-.036-2.914-.036s.126 2.628.054 5.148c-.036 1.278-.543 1.872-1.122 1.872-.8 0-1.141-.756-1.141-3.636a27.815 27.815 0 01.145-2.9c-2.028-.09-2.734-.2-2.734-.2a29.619 29.619 0 00-.235 3.78c-.003 3.82.902 5.314 3.111 5.314zm6.083 3.654s1.683-.072 3.023-.018c0 0-.109-1.314-.181-4.608a2.709 2.709 0 002.335 1.116c2.064 0 3.512-1.566 3.512-4.7 0-2.682-1.249-4.806-3.494-4.806A3.027 3.027 0 0061.46 5.04c0-.342.018-.63.036-1.17 0 0-1.684.036-2.516.018-.003.006.051 6.418-.003 12.66zm4.308-5.346c-.959 0-1.394-.9-1.394-2.88 0-1.872.471-2.88 1.376-2.88.869 0 1.34 1.026 1.34 2.88-.003 2.038-.456 2.888-1.325 2.888zm6.789 1.782a1.57 1.57 0 001.7-1.764 1.7 1.7 0 10-1.708 1.768z" fill="#fff" fill-rule="evenodd"/></svg><svg width="58.94" height="18.63" viewBox="-1 -1 58.94 18.63" x="71.91" y="46.88" xmlns="http://www.w3.org/2000/svg"><path data-name="Play on." d="M-.001 12.388c1.484-.036 3.005-.018 3.005-.018l-.072-2.916c3.295.126 5.662-1.332 5.662-4.662 0-3.168-1.9-4.788-5.956-4.788a20.118 20.118 0 00-2.625.18c.041 7.56-.014 12.204-.014 12.204zm2.879-9.99a4.275 4.275 0 01.471-.018c1.684 0 2.317.882 2.317 2.412 0 1.944-1 2.556-2.77 2.448-.036-2.394-.018-3.348-.018-4.842zm9.416 9.936S12.24 9.742 12.33.148c0 0-.923 0-2.915-.036 0 0 .054 3.51-.018 12.186-.003 0 1.084 0 2.897.036zm3.946.414a3.05 3.05 0 002.824-1.422c-.018.864-.072 1.422-.072 1.422 1.484-.018 2.353-.018 2.353-.018s.055-2.736-.018-5.724c-.054-2.448-1.194-3.816-3.91-3.816-2.354 0-3.784 1.368-3.856 3.366 1.647.054 2.7.072 2.7.072.055-.918.4-1.476 1.1-1.476.669 0 .977.486 1.032 1.494.018.18.018.414.018.414-3.549-.126-5.2 1.1-5.2 3.114.004 1.588 1.217 2.574 3.027 2.574zm2.3-3.96c0 1.638-.669 2.106-1.394 2.106a.927.927 0 01-1.031-1.008c0-.828.633-1.494 2.425-1.44v.342zm8.527 7.848s.706-2.808 3.585-13.392c0 0-1.086-.018-3.023-.144 0 0-.344 2.25-1.286 6.75 0 0-.579-2.358-1.321-6.228 0 0-1.087.126-3.114.162 0 0 1.177 3.384 3.023 9.45 0 0-.2.936-.778 2.988-.003 0 .685.072 2.911.414zm12.275-3.924c2.552 0 4.4-1.44 4.4-4.806.018-2.862-1.557-4.716-4.381-4.716-2.7 0-4.363 1.8-4.363 4.626-.004 3.114 1.496 4.896 4.341 4.896zm.036-1.944c-.941 0-1.358-.846-1.358-2.952 0-1.782.507-2.682 1.376-2.682.923 0 1.34.99 1.34 2.754-.003 2.074-.528 2.88-1.361 2.88zm10.446 2.052s2.009-.018 2.915-.018c0 0 0-5.238-.055-6.534-.054-1.926-.941-3.042-2.661-3.06a3.17 3.17 0 00-2.969 1.872c-.018-.72.018-1.44.018-1.44-1.1.054-2.3.018-2.3.018.036 5.112-.018 8.55-.018 8.55 1.34-.036 2.915 0 2.915 0s-.018-3.366.018-4.68c.036-1.044.489-1.836 1.285-1.836.652 0 .869.5.869 1.332.034 2.754-.02 5.796-.02 5.796zm5.413-.18a1.57 1.57 0 001.7-1.764 1.7 1.7 0 10-1.703 1.764z" fill="#fff" fill-rule="evenodd"/></svg></svg>