<svg width="210" height="163" xmlns="http://www.w3.org/2000/svg" xmlns:xlink="http://www.w3.org/1999/xlink"><svg width="122" height="35.12" viewBox="-1 -1 122 35.12" xmlns="http://www.w3.org/2000/svg"><path data-name="Rounded Rectangle 1" d="M4.5 1.51h111a3 3 0 013 3v24.1a3 3 0 01-3 3H4.5a3 3 0 01-3-3V4.51a3 3 0 013-3z" fill="none" stroke="#fff" stroke-linecap="round" stroke-width="3"/></svg><svg width="87.81" height="14.31" viewBox="-1 -1 87.81 14.31" x="122" xmlns="http://www.w3.org/2000/svg"><path data-name="Learn More" d="M.095 11.89s3.189 0 6.378.067c0 0-.017-.886.017-2.358 0 0-1.276.017-3.693-.05C2.697 2.642 2.73.418 2.73.418c-1.88.034-2.736 0-2.736 0C.095 6.639.095 11.89.095 11.89zm7.245-.016c3.558.033 6.63.15 6.63.15-.017-1.5.017-2.308.017-2.308-2.484-.033-3.944-.1-3.944-.1-.034-.786-.05-1.539-.067-2.224 2.048-.034 3.323 0 3.323 0-.034-1.4-.017-2.191-.017-2.191-1.846.05-2.9.033-3.34.033-.034-1.605-.017-2.575-.017-2.575 2.3-.05 3.995-.067 3.995-.067-.034-1.455-.034-2.341-.034-2.341-4.313.05-6.68.084-6.68.084.113 6.756.134 11.539.134 11.539zm7.277-.218a59.487 59.487 0 012.753.034c.084-.6.168-1.188.268-1.773 1.242 0 2.165.017 2.769.033.252 1.489.4 2.291.4 2.291 1.46-.033 2.887-.016 2.887-.016C22.301 5.937 21.109.201 21.109.201s-1.88-.017-4.045.067c-1.423 6.806-2.445 11.388-2.445 11.388zm4.4-9.515c.42 2.291.755 4.2 1.024 5.719h-2.067c.453-2.692.873-4.816 1.045-5.716zm10.902 10.167c1.7-.184 2.837-.3 2.837-.3-1.091-2.274-1.8-3.762-2.165-4.582a3.4 3.4 0 001.947-3.328c0-2.592-1.762-4.013-4.985-4.013a15.612 15.612 0 00-3.088.351c.05 7.04-.017 11.321-.017 11.321 1.36-.033 2.736-.016 2.736-.016l-.065-3.664a9.513 9.513 0 001.007-.05 141.763 141.763 0 011.793 4.281zm-2.8-6.17s-.034-1.539-.05-3.8a4.769 4.769 0 01.806-.067 1.723 1.723 0 011.93 1.94c.001 1.458-.955 2.027-2.686 1.927zm6.535 5.518c1.427 0 2.618.034 2.618.034a220.505 220.505 0 01-.2-6.489c1.863 4.264 3.072 7.04 3.072 7.04 1.578-.083 2.635-.183 2.635-.183C41.611 4.616 41.561.05 41.561.05c-1.427 0-2.585-.033-2.585-.033.2 3.478.285 6.254.319 7.759-1.8-4.03-3.038-7.191-3.038-7.191-1.46.051-2.652.117-2.652.117.101 6.79.051 10.954.051 10.954zm13.493.017c1.292.033 2.8.067 2.8.067-.05-3.462-.034-7.024-.017-8.847a417.47 417.47 0 011.477 7.024c1.41.05 2.769.033 2.769.033.5-2.725 1.141-5.685 1.527-7.408.168 5.552.1 9.716.1 9.716 1.376-.033 2.8-.083 2.8-.083-.386-7.191-.5-12.041-.5-12.041L54.243 0a195.384 195.384 0 01-1.46 7.375C51.961 3.675 51.44.569 51.44.569c-2 .067-3.877.05-3.877.05a425.207 425.207 0 01-.414 11.054zm16.985.568c2.769 0 4.515-1.722 4.532-6.07.016-3.713-1.377-6.1-4.532-6.1-3.139 0-4.582 2.525-4.549 6.121.019 3.926 1.563 6.052 4.551 6.052zm0-2.14c-1.058 0-1.611-1.1-1.611-3.98 0-2.693.553-3.88 1.594-3.88s1.595 1.12 1.595 3.88c.002 3.06-.619 3.98-1.576 3.98zm11.211 2.207c1.695-.184 2.836-.3 2.836-.3-1.091-2.274-1.8-3.762-2.165-4.582a3.4 3.4 0 001.947-3.328c0-2.592-1.762-4.013-4.985-4.013a15.61 15.61 0 00-3.088.351c.05 7.04-.017 11.321-.017 11.321 1.36-.033 2.736-.016 2.736-.016l-.067-3.663a9.521 9.521 0 001.007-.05 152.17 152.17 0 011.798 4.28zm-2.8-6.17s-.034-1.539-.05-3.8a4.758 4.758 0 01.805-.067 1.723 1.723 0 011.93 1.94c-.001 1.458-.957 2.027-2.686 1.927zm6.619 5.736c3.558.033 6.63.15 6.63.15-.017-1.5.016-2.308.016-2.308-2.484-.033-3.944-.1-3.944-.1-.033-.786-.05-1.539-.067-2.224 2.048-.034 3.323 0 3.323 0-.033-1.4-.017-2.191-.017-2.191-1.846.05-2.9.033-3.34.033-.033-1.605-.016-2.575-.016-2.575 2.3-.05 3.994-.067 3.994-.067-.033-1.455-.033-2.341-.033-2.341-4.314.05-6.68.084-6.68.084.116 6.756.133 11.539.133 11.539z" fill="#fff" fill-rule="evenodd"/></svg><svg width="68.75" height="24.38" viewBox="-1 -1 68.75 24.38" y="138.53" xmlns="http://www.w3.org/2000/svg"><path data-name="100%" d="M4.398 21.7s1.961.06 5.07-.03c0 0-.211-10.021-.211-20.582 0 0-1.086-.12-3.018-.36 0 0-2.384 1.35-6.246 3.3 0 0 .573 1.561 1.418 4.321 0 0 1.147-.69 2.957-1.59.03 1.83.09 6.72.03 14.941zm15.871.69c5.281 0 8.117-4.02 8.117-11.251 0-7.051-2.837-10.621-8.148-10.621-5.009 0-8.087 3.6-8.087 10.771.001 7.201 3.139 11.101 8.118 11.101zm.03-4.08c-1.931 0-2.9-2.161-2.9-7.111 0-4.65.936-6.691 2.867-6.691 1.811 0 2.806 2.221 2.806 6.571.004 5.521-1.083 7.231-2.772 7.231zm17.53 4.08c5.281 0 8.117-4.02 8.117-11.251 0-7.051-2.837-10.621-8.148-10.621-5.009 0-8.087 3.6-8.087 10.771.002 7.201 3.14 11.101 8.119 11.101zm.03-4.08c-1.931 0-2.9-2.161-2.9-7.111 0-4.65.935-6.691 2.867-6.691 1.811 0 2.806 2.221 2.806 6.571.004 5.521-1.082 7.231-2.772 7.231zm13.819-6.991c2.776 0 4.888-1.44 4.888-5.58 0-3.661-1.629-5.731-4.828-5.731-3.138 0-4.888 2.16-4.888 5.341.001 3.54 1.358 5.97 4.829 5.97zm.03-2.28c-.936 0-1.418-.99-1.418-3.42 0-2.1.453-3.241 1.418-3.241s1.418.96 1.418 3.271c.001 2.61-.512 3.39-1.417 3.39zm-.331 13.021S54.213 17.35 64.111.878c0 0-.905-.03-2.293-.21 0 0-4.527 7.861-12.644 21.122a19.991 19.991 0 012.203.27zm10.411.21c2.836 0 4.949-1.68 4.949-5.7 0-3.36-1.57-5.67-4.889-5.67-3.2 0-4.889 2.4-4.889 5.55 0 3.48 1.51 5.82 4.829 5.82zm.06-2.31c-.966 0-1.418-.96-1.418-3.481 0-2.13.483-3.18 1.388-3.18 1 0 1.418.99 1.418 3.36 0 2.431-.483 3.301-1.388 3.301z" fill="#fff" fill-rule="evenodd"/></svg><svg width="80.25" height="84.25" viewBox="-1 -1 80.25 84.25" x="122" y="14.31" xmlns="http://www.w3.org/2000/svg"><path data-name="100% Whole Grains copy 11" d="M9.898 21.7s1.961.06 5.07-.03c0 0-.211-10.021-.211-20.582 0 0-1.086-.12-3.018-.36 0 0-2.384 1.35-6.246 3.3 0 0 .573 1.561 1.418 4.321 0 0 1.147-.69 2.957-1.59.03 1.83.09 6.72.03 14.941zm15.871.69c5.281 0 8.117-4.02 8.117-11.251 0-7.051-2.837-10.621-8.148-10.621-5.009 0-8.087 3.6-8.087 10.771.001 7.201 3.139 11.101 8.118 11.101zm.03-4.08c-1.931 0-2.9-2.161-2.9-7.111 0-4.65.936-6.691 2.867-6.691 1.811 0 2.806 2.221 2.806 6.571.004 5.521-1.083 7.231-2.772 7.231zm17.53 4.08c5.281 0 8.117-4.02 8.117-11.251 0-7.051-2.837-10.621-8.148-10.621-5.009 0-8.087 3.6-8.087 10.771.002 7.201 3.14 11.101 8.119 11.101zm.03-4.08c-1.931 0-2.9-2.161-2.9-7.111 0-4.65.935-6.691 2.867-6.691 1.811 0 2.806 2.221 2.806 6.571.004 5.521-1.082 7.231-2.772 7.231zm13.819-6.991c2.776 0 4.888-1.44 4.888-5.58 0-3.661-1.629-5.731-4.828-5.731-3.138 0-4.888 2.16-4.888 5.341.001 3.54 1.358 5.97 4.829 5.97zm.03-2.28c-.936 0-1.418-.99-1.418-3.42 0-2.1.453-3.241 1.418-3.241s1.418.96 1.418 3.271c.001 2.61-.512 3.39-1.417 3.39zm-.331 13.021S59.713 17.35 69.611.878c0 0-.905-.03-2.293-.21 0 0-4.527 7.861-12.644 21.122a19.991 19.991 0 012.203.27zm10.411.21c2.836 0 4.949-1.68 4.949-5.7 0-3.36-1.57-5.67-4.889-5.67-3.2 0-4.889 2.4-4.889 5.55 0 3.48 1.51 5.82 4.829 5.82zm.06-2.31c-.966 0-1.418-.96-1.418-3.481 0-2.13.483-3.18 1.388-3.18 1 0 1.418.99 1.418 3.36 0 2.431-.483 3.301-1.388 3.301zM13.957 52.39s2.354 0 7.061-.24c0 0 .483-6.121 2.142-21.692 0 0-1.509 0-4.919-.12 0 0-.121 3.78-1.116 17.612-.453-2.791-1.3-7.981-2.474-15.662 0 0-1.449-.06-5.251-.06 0 0-.422 2.79-2.444 14.671-.241-3.12-.6-8.64-1-15.751 0 0-2.384.06-4.979.09.271 3.06 1.056 10.111 1.961 19.622 0 0 1.72.03 6.79.27 0 0 .664-4.531 2.263-14.431.397 2.94 1.03 8.101 1.966 15.691zm10.5-1.29c2.987-.06 4.888-.03 4.888-.03s-.06-4.02 0-7.621c.03-1.8.754-3.15 2.112-3.15 1.086 0 1.448.78 1.509 2.25.091 4.591-.03 9.541-.03 9.541 2.927 0 4.8.06 4.8.06s.121-5.881-.03-10.951c-.121-3.12-1.539-5.07-4.255-5.07a4.759 4.759 0 00-4.285 2.4c-.03-4.051.06-7.291.06-7.291-3.138.03-4.768.03-4.768.03.119 11.132-.002 19.832-.002 19.832zm22.026.9c4.255 0 7.333-2.4 7.333-8.011.03-4.77-2.6-7.86-7.3-7.86-4.5 0-7.273 3-7.273 7.71C39.241 49.03 41.745 52 46.483 52zm.06-3.24c-1.569 0-2.263-1.41-2.263-4.921 0-2.97.845-4.47 2.293-4.47 1.539 0 2.233 1.65 2.233 4.59.001 3.451-.874 4.801-2.263 4.801zm13.91 2.61s-.09-4.32.061-20.312c0 0-1.539 0-4.859-.06 0 0 .091 5.851-.03 20.312 0 0 1.811 0 4.828.06zm9.2.72a6.714 6.714 0 007-5.461c-3.139-.09-5.01-.15-5.01-.15-.241 1.651-.965 2.431-2.052 2.431-1.388 0-2.142-1.11-2.323-3.511 6.065-.12 9.355-.15 9.355-.15.241-5.37-1.6-9.09-7.182-9.12-4.617 0-7.182 3.24-7.182 7.86.004 4.681 1.935 8.101 7.397 8.101zm-.121-12.871c1.358 0 2.082 1.32 2.112 3.66-1.78.09-3.2.12-4.375.15.154-2.52.878-3.81 2.266-3.81zM8.224 82.24c5.009 0 8.238-2.97 7.936-11.551-4.828.03-8.63-.03-8.63-.03.06 2.43.03 3.72.03 3.72l3.651-.09c-.181 2.821-1.116 4.081-2.686 4.081-2.263 0-3.35-2.041-3.35-7.231 0-4.59.966-6.931 2.927-6.931 1.539 0 2.384 1.441 2.565 4.411 1.961-.09 5.039-.15 5.039-.15-.181-5.011-2.806-8.191-7.514-8.191-5.4 0-8.178 3.99-8.178 10.861.002 7.891 3.231 11.101 8.21 11.101zm9.473-.6c3.259-.03 4.889-.03 4.889-.03s-.121-3.36-.06-5.611c.09-3.6 1.207-4.98 4.587-5.22.06-2.97.151-4.56.151-4.56a5.712 5.712 0 00-5.673 3.21c0-1.5.06-2.67.06-2.67-2.746.06-3.983.03-3.983.03.089 7.26.029 14.851.029 14.851zm15.272.42a5.085 5.085 0 004.707-2.37c-.03 1.44-.121 2.37-.121 2.37 2.475-.03 3.923-.03 3.923-.03s.091-4.56-.03-9.541c-.091-4.08-1.992-6.36-6.518-6.36-3.923 0-6.307 2.28-6.427 5.61 2.746.09 4.5.12 4.5.12.091-1.53.664-2.46 1.841-2.46 1.117 0 1.63.81 1.72 2.49.03.3.03.69.03.69-5.915-.21-8.66 1.83-8.66 5.191-.009 2.64 2.013 4.29 5.035 4.29zm3.832-6.6c0 2.731-1.117 3.511-2.324 3.511a1.545 1.545 0 01-1.72-1.68c0-1.381 1.056-2.491 4.044-2.4v.57zm6.819 6.121c2.776-.06 4.828-.03 4.828-.03-.121-8.161-.09-15-.09-15-3.048.06-4.828.03-4.828.03.116 11.009.086 14.999.086 14.999zm2.384-16.441c2.022 0 2.927-1.111 2.927-2.611 0-1.47-.936-2.52-2.927-2.52s-3.018.96-3.018 2.52c-.004 1.709.992 2.61 3.014 2.61zm13.005 17.041s3.349-.03 4.858-.03c0 0 0-8.731-.091-10.891-.09-3.21-1.569-5.07-4.435-5.1a5.284 5.284 0 00-4.949 3.12c-.03-1.2.03-2.4.03-2.4-1.841.09-3.832.03-3.832.03.06 8.52-.03 14.251-.03 14.251 2.233-.06 4.858 0 4.858 0s-.03-5.611.03-7.8c.06-1.74.815-3.06 2.142-3.06 1.086 0 1.449.84 1.449 2.22.056 4.589-.034 9.659-.034 9.659zm12.913.06c3.591 0 6.337-1.47 6.337-4.8 0-2.281-1.086-3.661-5.129-4.651-2.535-.63-3.2-1.2-3.2-2.16a1.409 1.409 0 011.66-1.32c1.3 0 1.991 1.02 2.021 2.58 2.807-.09 4.436-.06 4.436-.06-.06-3.42-2.233-5.88-6.548-5.88-3.953 0-6.216 1.92-6.216 4.59 0 2.64 1.509 4.17 4.888 4.95 2.867.66 3.41 1.2 3.41 2.071a1.429 1.429 0 01-1.66 1.38c-1.448 0-2.2-.81-2.233-2.581l-4.586-.09c.027 4.08 2.652 5.97 6.816 5.97z" fill="#fff" fill-rule="evenodd"/></svg><svg width="77.69" height="24.03" viewBox="-1 -1 77.69 24.03" x="80.25" y="114.28" xmlns="http://www.w3.org/2000/svg"><path data-name="Whole" d="M12.988 22.046s2.354 0 7.061-.24c0 0 .483-6.121 2.142-21.692 0 0-1.509 0-4.919-.12 0 0-.121 3.78-1.116 17.612-.453-2.791-1.3-7.981-2.474-15.662 0 0-1.449-.06-5.251-.06 0 0-.422 2.79-2.444 14.671-.241-3.12-.6-8.64-1-15.751 0 0-2.384.06-4.979.09.271 3.06 1.056 10.111 1.961 19.622 0 0 1.72.03 6.79.27 0 0 .664-4.531 2.263-14.431.397 2.94 1.03 8.101 1.966 15.691zm10.5-1.29c2.987-.06 4.888-.03 4.888-.03s-.06-4.02 0-7.621c.03-1.8.754-3.15 2.112-3.15 1.086 0 1.448.78 1.509 2.25.091 4.591-.03 9.541-.03 9.541 2.927 0 4.8.06 4.8.06s.121-5.881-.03-10.951c-.121-3.12-1.539-5.07-4.255-5.07a4.759 4.759 0 00-4.285 2.4c-.03-4.051.06-7.291.06-7.291-3.138.03-4.768.03-4.768.03.119 11.132-.002 19.832-.002 19.832zm22.026.9c4.255 0 7.333-2.4 7.333-8.011.03-4.77-2.6-7.86-7.3-7.86-4.5 0-7.273 3-7.273 7.71-.002 5.191 2.502 8.161 7.24 8.161zm.06-3.24c-1.569 0-2.263-1.41-2.263-4.921 0-2.97.845-4.47 2.293-4.47 1.539 0 2.233 1.65 2.233 4.59.001 3.451-.874 4.801-2.263 4.801zm13.91 2.61s-.09-4.32.061-20.312c0 0-1.539 0-4.859-.06 0 0 .091 5.851-.03 20.312 0 0 1.811 0 4.828.06zm9.2.72a6.714 6.714 0 007-5.461c-3.139-.09-5.01-.15-5.01-.15-.241 1.651-.965 2.431-2.052 2.431-1.388 0-2.142-1.11-2.323-3.511 6.065-.12 9.355-.15 9.355-.15.241-5.37-1.6-9.09-7.182-9.12-4.617 0-7.182 3.24-7.182 7.86.004 4.681 1.935 8.101 7.397 8.101zm-.121-12.871c1.358 0 2.082 1.32 2.112 3.66-1.78.09-3.2.12-4.375.15.154-2.52.878-3.81 2.266-3.81z" fill="#fff" fill-rule="evenodd"/></svg><svg width="80.25" height="24.25" viewBox="-1 -1 80.25 24.25" y="114.28" xmlns="http://www.w3.org/2000/svg"><path data-name="Grains" d="M8.224 22.24c5.009 0 8.238-2.97 7.936-11.551-4.828.03-8.63-.03-8.63-.03.06 2.43.03 3.72.03 3.72l3.651-.09c-.181 2.821-1.116 4.081-2.686 4.081-2.263 0-3.35-2.041-3.35-7.231 0-4.59.966-6.931 2.927-6.931 1.539 0 2.384 1.441 2.565 4.411 1.961-.09 5.039-.15 5.039-.15C15.525 3.458 12.9.278 8.192.278c-5.4 0-8.178 3.99-8.178 10.861.002 7.891 3.231 11.101 8.21 11.101zm9.473-.6c3.259-.03 4.889-.03 4.889-.03s-.121-3.36-.06-5.611c.09-3.6 1.207-4.98 4.587-5.22.06-2.97.151-4.56.151-4.56a5.712 5.712 0 00-5.673 3.21c0-1.5.06-2.67.06-2.67-2.746.06-3.983.03-3.983.03.089 7.26.029 14.851.029 14.851zm15.272.42a5.085 5.085 0 004.707-2.37c-.03 1.44-.121 2.37-.121 2.37 2.475-.03 3.923-.03 3.923-.03s.091-4.56-.03-9.541c-.091-4.08-1.992-6.36-6.518-6.36-3.923 0-6.307 2.28-6.427 5.61 2.746.09 4.5.12 4.5.12.091-1.53.664-2.46 1.841-2.46 1.117 0 1.63.81 1.72 2.49.03.3.03.69.03.69-5.915-.21-8.66 1.83-8.66 5.191-.009 2.64 2.013 4.29 5.035 4.29zm3.832-6.6c0 2.731-1.117 3.511-2.324 3.511a1.545 1.545 0 01-1.72-1.68c0-1.381 1.056-2.491 4.044-2.4v.57zm6.819 6.121c2.776-.06 4.828-.03 4.828-.03-.121-8.161-.09-15-.09-15-3.048.06-4.828.03-4.828.03.116 11.009.086 14.999.086 14.999zM46.004 5.14c2.022 0 2.927-1.111 2.927-2.611 0-1.47-.936-2.52-2.927-2.52s-3.018.96-3.018 2.52c-.004 1.709.992 2.61 3.014 2.61zm13.005 17.041s3.349-.03 4.858-.03c0 0 0-8.731-.091-10.891-.09-3.21-1.569-5.07-4.435-5.1a5.284 5.284 0 00-4.949 3.12c-.03-1.2.03-2.4.03-2.4-1.841.09-3.832.03-3.832.03.06 8.52-.03 14.251-.03 14.251 2.233-.06 4.858 0 4.858 0s-.03-5.611.03-7.8c.06-1.74.815-3.06 2.142-3.06 1.086 0 1.449.84 1.449 2.22.056 4.589-.034 9.659-.034 9.659zm12.913.06c3.591 0 6.337-1.47 6.337-4.8 0-2.281-1.086-3.661-5.129-4.651-2.535-.63-3.2-1.2-3.2-2.16a1.409 1.409 0 011.66-1.32c1.3 0 1.991 1.02 2.021 2.58 2.807-.09 4.436-.06 4.436-.06-.06-3.42-2.233-5.88-6.548-5.88-3.953 0-6.216 1.92-6.216 4.59 0 2.64 1.509 4.17 4.888 4.95 2.867.66 3.41 1.2 3.41 2.071a1.429 1.429 0 01-1.66 1.38c-1.448 0-2.2-.81-2.233-2.581l-4.586-.09c.027 4.08 2.652 5.97 6.816 5.97z" fill="#fff" fill-rule="evenodd"/></svg><svg width="59.81" height="15.47" viewBox="-1 -1 59.81 15.47" x="68.75" y="138.53" xmlns="http://www.w3.org/2000/svg"><path data-name="&amp; Other" d="M4.255 13.46a5.474 5.474 0 003.836-1.35l1.362 1.008c.914-1.3 1.38-1.854 1.38-1.854l-1.416-.99a11.242 11.242 0 00.932-3.168s-.986-.216-2.42-.648a11.033 11.033 0 01-.556 2.268A25.568 25.568 0 015.401 6.98c1.4-.828 2.868-1.764 2.868-3.816A3.216 3.216 0 004.756.014C2.408.014.92 1.314.92 3.506a5.419 5.419 0 001.183 3.132A3.6 3.6 0 00-.011 9.875c0 2.235 1.811 3.585 4.266 3.585zm.394-2.2A1.542 1.542 0 013 9.622a1.881 1.881 0 01.556-1.332 32.339 32.339 0 002.635 2.34 2.292 2.292 0 01-1.541.634zM3.556 3.592a1.225 1.225 0 011.093-1.44 1.027 1.027 0 011 1.206 2.453 2.453 0 01-1.47 2.124 3.538 3.538 0 01-.623-1.886zm16.831 9.63c2.958 0 4.822-1.854 4.84-6.534.018-4-1.47-6.57-4.84-6.57-3.352 0-4.893 2.718-4.858 6.588.019 4.234 1.668 6.52 4.859 6.52zm0-2.3c-1.129 0-1.721-1.188-1.721-4.284 0-2.9.592-4.176 1.7-4.176s1.7 1.206 1.7 4.176c.009 3.294-.657 4.284-1.678 4.284zm12.028 1.692s-.09-.936-.2-2.448a4.2 4.2 0 01-1.04.162 1.094 1.094 0 01-1.237-1.26c-.036-.972-.036-1.962-.036-2.934.771 0 1.488 0 2.33.018 0 0-.036-.432.018-2.3h-2.344c.018-1.386.054-2.358.054-2.358s-1.093.018-2.814 0c0 0-.018.936-.036 2.322-.376 0-.789 0-1.2-.018 0 0 .036.558.018 2.34h1.165c0 1.116 0 2.3.018 3.51.036 2.376 1.237 3.312 3.065 3.312a9.05 9.05 0 002.239-.346zm1.058-.018c1.775-.036 2.9-.018 2.9-.018s-.036-2.412 0-4.572c.018-1.08.448-1.89 1.255-1.89.645 0 .86.468.9 1.35.054 2.754-.018 5.724-.018 5.724 1.739 0 2.85.036 2.85.036s.072-3.528-.018-6.57c-.072-1.872-.914-3.042-2.527-3.042a2.821 2.821 0 00-2.545 1.44c-.018-2.43.036-4.374.036-4.374-1.864.018-2.832.018-2.832.018.07 6.677.001 11.898.001 11.898zm13.354.594a4 4 0 004.158-3.276c-1.864-.054-2.975-.09-2.975-.09-.143.99-.574 1.458-1.219 1.458-.825 0-1.273-.666-1.38-2.106 3.6-.072 5.556-.09 5.556-.09.144-3.222-.95-5.454-4.266-5.472-2.742 0-4.266 1.944-4.266 4.716 0 2.808 1.147 4.86 4.392 4.86zm-.072-7.722c.807 0 1.237.792 1.255 2.2-1.058.054-1.9.072-2.6.09.09-1.516.521-2.29 1.345-2.29zm5.378 7.452c1.936-.018 2.9-.018 2.9-.018s-.071-2.016-.035-3.366c.053-2.16.717-2.988 2.724-3.132.036-1.782.09-2.736.09-2.736a3.388 3.388 0 00-3.37 1.926c0-.9.036-1.6.036-1.6-1.631.036-2.366.018-2.366.018.057 4.354.021 8.908.021 8.908z" fill="#fff" fill-rule="evenodd"/></svg><svg width="70.47" height="15.34" viewBox="-1 -1 70.47 15.34" x="122" y="98.56" xmlns="http://www.w3.org/2000/svg"><path data-name="Delicious" d="M2.972 10.859s-.09-3.726-.108-8.154c.2-.018.376-.036.556-.036 1.7 0 2.492 1.368 2.492 4.1 0 3.33-1 4.1-2.527 4.1a3.159 3.159 0 01-.413-.01zM0 13.019a20.767 20.767 0 002.671.18c4.212 0 6.363-1.854 6.363-6.336 0-4.284-1.918-6.552-6.22-6.552A18.478 18.478 0 000 .563s.05 5.382 0 12.456zm14.393.234a4 4 0 004.158-3.276c-1.864-.054-2.975-.09-2.975-.09-.143.99-.574 1.458-1.219 1.458-.825 0-1.273-.666-1.38-2.106 3.6-.072 5.557-.09 5.557-.09.143-3.222-.95-5.454-4.266-5.472-2.742 0-4.266 1.944-4.266 4.716-.002 2.808 1.144 4.86 4.388 4.86zm-.072-7.722c.807 0 1.237.792 1.255 2.2-1.057.054-1.9.072-2.6.09.088-1.516.518-2.29 1.342-2.29zm8.3 7.29s-.054-2.592.036-12.186c0 0-.914 0-2.886-.036 0 0 .054 3.51-.018 12.186-.003 0 1.072 0 2.865.036zm1.613.126c1.649-.036 2.868-.018 2.868-.018-.072-4.9-.054-9-.054-9-1.81.036-2.868.018-2.868.018.069 6.606.051 9 .051 9zm1.416-9.864a1.509 1.509 0 001.739-1.566A1.49 1.49 0 0025.65.005a1.51 1.51 0 00-1.793 1.512c-.003 1.026.589 1.566 1.79 1.566zm6.973 10.17c2.151 0 3.872-1.1 4.069-4-2.169 0-3.047-.072-3.047-.072-.018 1.368-.5 1.908-1.093 1.89-.843 0-1.273-.864-1.273-2.592 0-1.782.43-2.772 1.255-2.772.7 0 1.093.738 1.129 1.98 0 0 1.667-.072 2.975-.036a3.8 3.8 0 00-4.069-4c-2.8 0-4.23 1.908-4.23 4.77-.003 3.017 1.341 4.832 4.281 4.832zm5.234-.306c1.649-.036 2.868-.018 2.868-.018-.072-4.9-.054-9-.054-9-1.81.036-2.868.018-2.868.018.069 6.606.051 9 .051 9zm1.416-9.864a1.509 1.509 0 001.739-1.566A1.49 1.49 0 0039.273.005a1.51 1.51 0 00-1.793 1.512c-.003 1.026.589 1.566 1.79 1.566zm6.991 10.116c2.527 0 4.356-1.44 4.356-4.806.018-2.862-1.541-4.716-4.338-4.716-2.671 0-4.32 1.8-4.32 4.626-.004 3.114 1.484 4.896 4.298 4.896zm.036-1.944c-.932 0-1.344-.846-1.344-2.952 0-1.782.5-2.682 1.362-2.682.914 0 1.327.99 1.327 2.754-.004 2.07-.524 2.88-1.345 2.88zm8.5 1.782a2.791 2.791 0 002.455-1.368c-.018.864-.035 1.512-.035 1.512a46.629 46.629 0 012.384.018c-.072-5.58-.018-9.5-.018-9.5-2.151 0-2.886-.036-2.886-.036s.125 2.628.054 5.148c-.036 1.278-.538 1.872-1.112 1.872-.789 0-1.129-.756-1.129-3.636a28.345 28.345 0 01.143-2.9c-2.007-.09-2.706-.2-2.706-.2a29.931 29.931 0 00-.233 3.78c-.007 3.816.889 5.311 3.076 5.311zm9.912.306c2.133 0 3.764-.882 3.764-2.88 0-1.368-.645-2.2-3.047-2.79-1.506-.378-1.9-.72-1.9-1.3a.84.84 0 01.986-.792c.771 0 1.183.612 1.2 1.548 1.667-.054 2.635-.036 2.635-.036-.036-2.052-1.327-3.528-3.89-3.528-2.348 0-3.692 1.152-3.692 2.754 0 1.584.9 2.5 2.9 2.97 1.7.4 2.026.72 2.026 1.242a.851.851 0 01-.986.828c-.86 0-1.308-.486-1.326-1.548l-2.725-.054c.015 2.452 1.575 3.586 4.048 3.586z" fill="#fff" fill-rule="evenodd"/></svg><svg width="88.03" height="19.88" viewBox="-1 -1 88.03 19.88" y="94.4" xmlns="http://www.w3.org/2000/svg"><path data-name="Ingredients" d="M.085 12.983c1.739-.018 2.958 0 2.958 0C2.971 6.467 2.953.455 2.953.455 1.053.473.013.473.013.473c.09 7.002.072 12.51.072 12.51zm9.536.324s1.99-.018 2.886-.018c0 0 0-5.238-.054-6.534-.054-1.926-.932-3.042-2.635-3.06a3.137 3.137 0 00-2.94 1.872c-.018-.72.018-1.44.018-1.44-1.093.054-2.276.018-2.276.018.036 5.112-.018 8.55-.018 8.55 1.326-.036 2.886 0 2.886 0s-.018-3.366.018-4.68c.036-1.044.484-1.836 1.273-1.836.645 0 .86.5.86 1.332.036 2.754-.02 5.796-.02 5.796zm7.743 4.554c2.366 0 4.66-1.008 4.66-3.114 0-1.548-1.075-2.394-3.782-2.646-1.4-.126-1.7-.324-1.7-.594a.468.468 0 01.179-.36 7.347 7.347 0 00.914.054 3.553 3.553 0 003.872-3.8 3.638 3.638 0 00-1.524-3.186c.986-1.728 1.7-2.808 1.7-2.808-1.739-.576-2.778-.99-2.778-.99-.287 1.512-.52 2.592-.645 3.186a5.36 5.36 0 00-.771-.054 3.666 3.666 0 00-4 3.816 3.462 3.462 0 001.81 3.366 1.859 1.859 0 00-1.291 1.584 1.626 1.626 0 001.183 1.44 2.067 2.067 0 00-1.864 1.908c.004 1.442 1.617 2.198 4.037 2.198zm.125-8.37c-.735 0-1.183-.648-1.183-2.016 0-1.242.412-1.98 1.183-1.98s1.165.774 1.165 1.98c.001 1.404-.483 2.016-1.164 2.016zm1.793 5.8c0 .54-.627.882-1.6.882-.914.018-1.524-.288-1.524-.864a1.18 1.18 0 01.761-.971c1.843.1 2.363.409 2.363.949zm3.262-2.3c1.936-.018 2.9-.018 2.9-.018s-.072-2.016-.036-3.366c.054-2.16.717-2.988 2.725-3.132.036-1.782.09-2.736.09-2.736a3.387 3.387 0 00-3.37 1.926c0-.9.036-1.6.036-1.6-1.631.036-2.366.018-2.366.018.057 4.346.022 8.9.022 8.9zm10.809.27a4 4 0 004.159-3.276c-1.864-.054-2.976-.09-2.976-.09-.143.99-.574 1.458-1.219 1.458-.825 0-1.273-.666-1.38-2.106 3.6-.072 5.557-.09 5.557-.09.143-3.222-.95-5.454-4.266-5.472-2.742 0-4.266 1.944-4.266 4.716-.001 2.8 1.147 4.852 4.391 4.852zm-.072-7.722c.807 0 1.237.792 1.255 2.2-1.058.054-1.9.072-2.6.09.091-1.524.521-2.298 1.345-2.298zm13.677 7.794c-.036-7 .018-12.726.018-12.726-2.366.036-2.958.018-2.958.018.072 1.854.108 3.24.126 4.248a2.685 2.685 0 00-2.223-1.17c-2.276 0-3.477 1.89-3.477 4.716 0 3.15 1.4 4.752 3.6 4.752a2.763 2.763 0 002.509-1.368c-.018.9-.054 1.494-.054 1.494a88.622 88.622 0 012.459.028zm-4.141-2c-.825 0-1.344-.918-1.344-2.88 0-1.782.484-2.844 1.326-2.844.9 0 1.362 1.062 1.38 2.88.001 2.064-.573 2.838-1.36 2.838zm5.718 1.62c1.649-.036 2.868-.018 2.868-.018-.072-4.9-.054-9-.054-9-1.81.036-2.868.018-2.868.018.072 6.6.054 8.994.054 8.994zm1.416-9.864a1.509 1.509 0 001.739-1.566A1.49 1.49 0 0049.951.011a1.51 1.51 0 00-1.793 1.512c.001 1.02.592 1.56 1.793 1.56zm7.08 10.17a4 4 0 004.158-3.276c-1.864-.054-2.975-.09-2.975-.09-.143.99-.574 1.458-1.219 1.458-.825 0-1.273-.666-1.38-2.106 3.6-.072 5.557-.09 5.557-.09.143-3.222-.95-5.454-4.266-5.472-2.742 0-4.266 1.944-4.266 4.716 0 2.802 1.147 4.854 4.392 4.854zm-.072-7.722c.807 0 1.237.792 1.255 2.2-1.058.054-1.9.072-2.6.09.091-1.522.522-2.296 1.346-2.296zm10.379 7.776s1.989-.018 2.885-.018c0 0 0-5.238-.053-6.534-.054-1.926-.932-3.042-2.635-3.06a3.138 3.138 0 00-2.94 1.872c-.018-.72.018-1.44.018-1.44-1.093.054-2.276.018-2.276.018.036 5.112-.018 8.55-.018 8.55 1.326-.036 2.886 0 2.886 0s-.018-3.366.017-4.68c.036-1.044.484-1.836 1.273-1.836.645 0 .86.5.86 1.332.037 2.748-.016 5.79-.016 5.79zm10.163-.63s-.09-.936-.2-2.448a4.2 4.2 0 01-1.04.162 1.1 1.1 0 01-1.237-1.26c-.036-.972-.036-1.962-.036-2.934.771 0 1.488 0 2.331.018 0 0-.036-.432.018-2.3h-2.349c.018-1.386.054-2.358.054-2.358s-1.093.018-2.814 0c0 0-.018.936-.036 2.322-.376 0-.788 0-1.2-.018 0 0 .036.558.018 2.34h1.165c0 1.116 0 2.3.018 3.51.036 2.376 1.237 3.312 3.065 3.312a9.051 9.051 0 002.244-.352zm4.75.666c2.133 0 3.764-.882 3.764-2.88 0-1.368-.645-2.2-3.047-2.79-1.506-.378-1.9-.72-1.9-1.3a.84.84 0 01.986-.792c.77 0 1.183.612 1.2 1.548 1.667-.054 2.635-.036 2.635-.036-.036-2.052-1.327-3.528-3.89-3.528-2.348 0-3.693 1.152-3.693 2.754 0 1.584.9 2.5 2.9 2.97 1.7.4 2.026.72 2.026 1.242a.852.852 0 01-.986.828c-.861 0-1.309-.486-1.327-1.548l-2.724-.054c.024 2.446 1.583 3.58 4.057 3.58z" fill="#fff" fill-rule="evenodd"/></svg><svg width="121.63" height="29.56" viewBox="-1 -1 121.63 29.56" y="35.12" xmlns="http://www.w3.org/2000/svg"><path data-name="Snack up." d="M7.599 21.9c4.375 0 7.514-1.83 7.514-6.211 0-2.94-1.207-4.77-6.156-6.45-2.686-.93-3.651-1.86-3.651-3.24s.634-2.281 1.931-2.281c1.69 0 2.686 1.321 2.474 3.961 2.867.03 4.979.18 4.979.18.121-5.011-2.414-7.861-7.453-7.861-4.345 0-7.152 2.04-7.152 5.941 0 3.42 1.72 5.13 5.643 6.57 3.259 1.17 4.044 2.07 4.044 3.42 0 1.561-.754 2.191-2.022 2.191-1.75 0-2.746-1.41-2.625-4.171-3.2.06-5.13.03-5.13.03C-.157 19.08 2.412 21.9 7.599 21.9zm17.32.03s3.35-.03 4.858-.03c0 0 0-8.731-.091-10.891-.09-3.21-1.569-5.07-4.436-5.1a5.284 5.284 0 00-4.949 3.12c-.03-1.2.03-2.4.03-2.4-1.841.09-3.832.03-3.832.03.06 8.52-.03 14.251-.03 14.251 2.233-.06 4.858 0 4.858 0s-.03-5.611.03-7.8c.06-1.74.815-3.06 2.143-3.06 1.086 0 1.448.84 1.448 2.22.064 4.59-.03 9.66-.03 9.66zm11.1-.12a5.085 5.085 0 004.707-2.37c-.03 1.44-.121 2.37-.121 2.37 2.474-.03 3.923-.03 3.923-.03s.091-4.56-.03-9.541c-.09-4.08-1.992-6.36-6.518-6.36-3.923 0-6.307 2.28-6.428 5.61 2.746.09 4.5.12 4.5.12.091-1.53.664-2.46 1.841-2.46 1.117 0 1.63.81 1.72 2.49.03.3.03.69.03.69-5.914-.21-8.66 1.83-8.66 5.191-.001 2.64 2.021 4.29 5.039 4.29zm3.832-6.6c0 2.731-1.116 3.511-2.323 3.511a1.545 1.545 0 01-1.716-1.681c0-1.381 1.056-2.491 4.044-2.4v.57zm13.427 6.631c3.621 0 6.518-1.83 6.85-6.661-3.651 0-5.13-.12-5.13-.12-.03 2.281-.845 3.181-1.841 3.151-1.418 0-2.143-1.44-2.143-4.321 0-2.97.724-4.62 2.112-4.62 1.177 0 1.841 1.23 1.9 3.3 0 0 2.806-.12 5.009-.06-.03-3.9-2.565-6.66-6.85-6.66-4.707 0-7.122 3.18-7.122 7.95.006 5.01 2.269 8.04 7.218 8.04zm17.048.15s1.448-.12 5.16-.18c0 0-1.569-3.48-4.164-9.481C72.046 11.1 73.314 9 75.305 6c0 0-2.112-.03-5.552-.21 0 0-1.117 2.7-3.41 7.29 0-2.97.03-6.78.06-12.091 0 0-1.539.06-4.858-.03 0 0 .09 5.671 0 19.922 0 0 1.841-.06 4.858.03 0 0-.03-.87-.03-2.85.332-.54.845-1.32 1.509-2.311.546 1.26 1.361 3.33 2.447 6.24zm17.832-.51a4.715 4.715 0 004.134-2.28c-.03 1.44-.061 2.52-.061 2.52 2.716-.03 4.014.03 4.014.03-.121-9.3-.03-15.841-.03-15.841-3.621 0-4.859-.06-4.859-.06s.212 4.38.091 8.58c-.061 2.13-.905 3.121-1.871 3.121-1.328 0-1.9-1.261-1.9-6.061a46.536 46.536 0 01.241-4.83c-3.379-.15-4.556-.33-4.556-.33a49.312 49.312 0 00-.393 6.3c.002 6.36 1.511 8.85 5.193 8.85zm10.137 6.09s2.807-.12 5.04-.03c0 0-.181-2.19-.3-7.68a4.515 4.515 0 003.893 1.86c3.44 0 5.854-2.61 5.854-7.831 0-4.47-2.082-8.01-5.824-8.01a5.048 5.048 0 00-4.527 2.52c0-.57.031-1.05.061-1.95 0 0-2.807.06-4.195.03.001-.001.092 10.68.001 21.09zm7.182-8.91c-1.6 0-2.323-1.5-2.323-4.8 0-3.12.784-4.8 2.293-4.8 1.448 0 2.233 1.71 2.233 4.8.003 3.389-.751 4.799-2.2 4.799zm11.314 2.97a2.617 2.617 0 002.837-2.94 2.838 2.838 0 10-2.834 2.939z" fill="#fff" fill-rule="evenodd"/></svg><svg width="96.88" height="29.72" viewBox="-1 -1 96.88 29.72" y="64.68" xmlns="http://www.w3.org/2000/svg"><path data-name="Play on." d="M-.012 20.648c2.474-.06 5.009-.03 5.009-.03l-.121-4.861c5.492.21 9.445-2.22 9.445-7.77 0-5.281-3.169-7.981-9.928-7.981a33.539 33.539 0 00-4.376.3c.062 12.601-.029 20.342-.029 20.342zm4.8-16.652a7.128 7.128 0 01.785-.03c2.806 0 3.863 1.471 3.863 4.021 0 3.24-1.66 4.26-4.617 4.08-.063-3.99-.033-5.579-.033-8.071zm15.69 16.562s-.09-4.32.06-20.312c0 0-1.539 0-4.858-.06 0 0 .09 5.851-.03 20.312-.006 0 1.808 0 4.826.06zm6.577.69a5.085 5.085 0 004.708-2.37c-.03 1.44-.121 2.37-.121 2.37 2.474-.03 3.923-.03 3.923-.03s.09-4.56-.03-9.541c-.09-4.08-1.992-6.36-6.518-6.36-3.923 0-6.307 2.28-6.427 5.61 2.746.09 4.5.12 4.5.12.09-1.53.664-2.46 1.841-2.46 1.117 0 1.629.81 1.72 2.49.03.3.03.69.03.69-5.914-.21-8.661 1.83-8.661 5.191-.006 2.64 2.016 4.29 5.033 4.29zm3.832-6.6c0 2.731-1.117 3.511-2.324 3.511a1.545 1.545 0 01-1.719-1.681c0-1.381 1.056-2.491 4.044-2.4v.57zm14.21 13.08s1.177-4.68 5.975-22.321c0 0-1.811-.03-5.039-.24 0 0-.573 3.75-2.142 11.251 0 0-.966-3.931-2.2-10.381 0 0-1.811.21-5.19.27 0 0 1.961 5.64 5.039 15.751 0 0-.332 1.56-1.3 4.98-.001 0 1.146.12 4.857.69zm20.457-6.54c4.255 0 7.333-2.4 7.333-8.011.03-4.77-2.6-7.86-7.3-7.86-4.5 0-7.272 3-7.272 7.71-.003 5.191 2.502 8.161 7.239 8.161zm.061-3.24c-1.569 0-2.264-1.41-2.264-4.921 0-2.97.845-4.47 2.294-4.47 1.539 0 2.233 1.65 2.233 4.59 0 3.451-.875 4.801-2.263 4.801zm17.41 3.42s3.349-.03 4.858-.03c0 0 0-8.731-.09-10.891-.091-3.21-1.569-5.07-4.436-5.1a5.284 5.284 0 00-4.949 3.12c-.03-1.2.03-2.4.03-2.4-1.841.09-3.832.03-3.832.03.06 8.52-.03 14.251-.03 14.251 2.233-.06 4.858 0 4.858 0s-.03-5.611.03-7.8c.06-1.74.815-3.06 2.143-3.06 1.086 0 1.448.84 1.448 2.22.06 4.59-.03 9.66-.03 9.66zm9.021-.3a2.617 2.617 0 002.837-2.94 2.838 2.838 0 10-2.839 2.94z" fill="#fff" fill-rule="evenodd"/></svg></svg>